<?xml version="1.0" encoding="UTF-8" standalone="no"?>
<!DOCTYPE svg PUBLIC "-//W3C//DTD SVG 1.1//EN" "http://www.w3.org/Graphics/SVG/1.1/DTD/svg11.dtd">
<svg width="100%" height="100%" viewBox="0 0 820 360" version="1.1" xmlns="http://www.w3.org/2000/svg" xmlns:xlink="http://www.w3.org/1999/xlink" xml:space="preserve" xmlns:serif="http://www.serif.com/" style="fill-rule:evenodd;clip-rule:evenodd;stroke-linejoin:round;stroke-miterlimit:2;">
    <g transform="matrix(0.918683,0,0,0.928354,208.024,12.1377)">
        <g transform="matrix(1,0,0,1,151.25,-2.75)">
            <circle cx="222.949" cy="219.052" r="71.437" style="fill:rgb(216,27,96);fill-opacity:0.85;"/>
        </g>
        <g transform="matrix(1,0,0,1,-75,19.5)">
            <text x="380.528px" y="206.114px" style="font-family:'CenturyGothic', 'Century Gothic', sans-serif;font-size:20.833px;fill:white;">ACCESSIBILITÉ</text>
        </g>
    </g>
    <g transform="matrix(0.981492,0,0,0.991824,161.682,23.6236)">
        <g transform="matrix(1,0,0,1,8,146.25)">
            <circle cx="65.14" cy="73.489" r="72.125" style="fill:rgb(40,143,136);fill-opacity:0.85;"/>
        </g>
        <g transform="matrix(1,0,0,1,-77.5,35.75)">
            <text x="104.354px" y="201.864px" style="font-family:'CenturyGothic', 'Century Gothic', sans-serif;font-size:50px;fill:white;">SEO</text>
        </g>
    </g>
    <g transform="matrix(0.953117,0,0,0.963151,149.365,52.3318)">
        <g transform="matrix(2.36983,0,0,2.36983,146.49,-196.097)">
            <circle cx="32.265" cy="174.864" r="30.25" style="fill:rgb(78,205,196);fill-opacity:0.85;"/>
        </g>
        <g transform="matrix(1,0,0,1,-80.5,15.5)">
            <text x="247.505px" y="199.114px" style="font-family:'CenturyGothic', 'Century Gothic', sans-serif;font-size:37.5px;fill:white;">CODE</text>
            <text x="264.232px" y="236.614px" style="font-family:'CenturyGothic', 'Century Gothic', sans-serif;font-size:37.5px;fill:white;">WEB</text>
        </g>
    </g>
    <g transform="matrix(1.11022,0,0,1.12191,341.772,73.6162)">
        <g transform="matrix(1,0,0,1,-130.476,-105.606)">
            <circle cx="468.992" cy="204.971" r="89.524" style="fill:rgb(78,205,196);fill-opacity:0.85;"/>
        </g>
        <g transform="matrix(1,0,0,1,-262.25,-32)">
            <text x="511.902px" y="143.202px" style="font-family:'CenturyGothic', 'Century Gothic', sans-serif;font-size:31.25px;fill:white;">RÉDACTION</text>
        </g>
    </g>
    <g transform="matrix(0.933922,0,0,0.943753,-32.1491,60.5493)">
        <g transform="matrix(1,0,0,1,-78.0745,-39.6915)">
            <circle cx="219.939" cy="144.343" r="104.79" style="fill:rgb(216,27,96);fill-opacity:0.85;"/>
        </g>
        <g transform="matrix(1,0,0,1,-379.468,-169.053)">
            <text x="430.71px" y="265.489px" style="font-family:'CenturyGothic', 'Century Gothic', sans-serif;font-size:50px;fill:white;">DESIGN</text>
            <text x="442.734px" y="315.489px" style="font-family:'CenturyGothic', 'Century Gothic', sans-serif;font-size:50px;fill:white;">UI / UX</text>
        </g>
    </g>
    <g transform="matrix(0.72634,0,0,0.733986,-5.62091,-21.4953)">
        <g transform="matrix(1,0,0,1,-84.75,-22)">
            <circle cx="682.949" cy="228.249" r="126.297" style="fill:rgb(128,219,213);fill-opacity:0.85;"/>
        </g>
        <g transform="matrix(1,0,0,1,-46.5,18.25)">
            <text x="522.652px" y="203.392px" style="font-family:'CenturyGothic', 'Century Gothic', sans-serif;font-size:37.5px;fill:white;">CONFORMITÉ</text>
        </g>
    </g>
    <g transform="matrix(0.849006,0,0,0.857943,-284.635,63.8405)">
        <g transform="matrix(1,0,0,1,142.25,-5)">
            <circle cx="510.701" cy="76.427" r="70.562" style="fill:rgb(145,18,65);fill-opacity:0.85;"/>
        </g>
        <g transform="matrix(1,0,0,1,-16.25,-20.25)">
            <text x="609.165px" y="86.114px" style="font-family:'CenturyGothic', 'Century Gothic', sans-serif;font-size:29.167px;fill:white;">RÉSEAUX</text>
            <text x="605.826px" y="115.281px" style="font-family:'CenturyGothic', 'Century Gothic', sans-serif;font-size:29.167px;fill:white;">SOCIAUX</text>
        </g>
    </g>
    <g transform="matrix(0.9277,0,0,0.937466,253.353,-172.704)">
        <g transform="matrix(1,0,0,1,36.25,-18)">
            <circle cx="323.863" cy="306.193" r="74.474" style="fill:rgb(235,92,144);fill-opacity:0.85;"/>
        </g>
        <g transform="matrix(1,0,0,1,45,38.5)">
            <text x="244.457px" y="247.614px" style="font-family:'CenturyGothic', 'Century Gothic', sans-serif;font-size:25px;fill:white;">MARKETING</text>
            <text x="268.962px" y="272.614px" style="font-family:'CenturyGothic', 'Century Gothic', sans-serif;font-size:25px;fill:white;">DIGITAL</text>
        </g>
    </g>
</svg>
