<svg id="Layer_1" data-name="Layer 1" xmlns="http://www.w3.org/2000/svg" viewBox="0 0 390 284.76"><defs><style>.cls-1{fill:#d4e157;}</style></defs><title>icon-connectivity-lime</title><path class="cls-1" d="M814,422.78a190.53,190.53,0,0,1,21.22,73.36A28.83,28.83,0,0,0,836,500v26c-1.64,10.16-2.79,20.43-5,30.46-8,36.2-25.49,67.34-51.41,93.76-6.33,6.45-15.33,6.83-21.5,1.17-6.4-5.89-6.79-15-.27-21.82,17.94-18.65,32-39.74,39.57-64.57q27.78-91.47-35.17-163.79c-1.54-1.76-3.24-3.36-4.77-5.12-5.91-6.78-5.62-15.68.66-21.47,6-5.56,15-5.35,21.13.82A191.68,191.68,0,0,1,814,422.78Z" transform="translate(-446 -370.61)"/><path class="cls-1" d="M734.18,605c-6.11,6.33-14.89,6.81-21.09,1.35A14.63,14.63,0,0,1,712,584.92c10.86-11.79,19.89-24.67,24.59-40.1,10.92-35.81,4.69-68.39-19.12-97.44-1.8-2.19-3.85-4.17-5.64-6.35-5.52-6.71-5.06-15.55,1-21.12s15-5.33,21.12.87A130.72,130.72,0,0,1,762,462.92c6.62,16.05,9.72,32.83,9.88,51.15C771.4,548.67,758.91,579.35,734.18,605Z" transform="translate(-446 -370.61)"/><path class="cls-1" d="M640.81,565.07A52.09,52.09,0,1,1,693,513.16,52,52,0,0,1,640.81,565.07Z" transform="translate(-446 -370.61)"/><path class="cls-1" d="M568.85,606.29c-6.05,5.37-14.71,5.08-20.71-1a130.9,130.9,0,0,1-28.31-42.57c-6.6-16.07-9.64-32.85-9.78-50.79.59-34.6,12.95-65,37.28-90.49,6.43-6.74,15.44-7.34,21.84-1.51s6.74,15,.24,21.81c-18.32,19.3-28.53,42-29.15,68.68-.61,26.25,7.84,49.37,25.14,69.2,1.64,1.88,3.4,3.67,5,5.61C575.79,592,575.13,600.71,568.85,606.29Z" transform="translate(-446 -370.61)"/><path class="cls-1" d="M523.88,651.38c-6.1,5.68-15.13,5.3-21.49-1.15a193.7,193.7,0,0,1-34.58-47.46,190.75,190.75,0,0,1-21-72.93A30.56,30.56,0,0,0,446,526V500c1.66-10.31,2.8-20.74,5.08-30.91,8.06-36,25.47-67,51.27-93.31,6.49-6.61,15.76-6.86,21.88-.89s6.29,15-.35,21.85c-21.33,22-36.48,47.6-43.09,77.61-12.57,57,.57,107.53,39.61,151.14,1.22,1.37,2.53,2.66,3.74,4C530.41,636.61,530.3,645.4,523.88,651.38Z" transform="translate(-446 -370.61)"/></svg>