<svg id="Layer_1" data-name="Layer 1" xmlns="http://www.w3.org/2000/svg" viewBox="0 0 511.9 511.8"><defs><style>.cls-1{fill:#d4e157;}.cls-2{fill:#fff;}</style></defs><title>icon-people-lime</title><path class="cls-1" d="M697,449.34c19.12.52,38.31.2,57.33,1.84,13.48,1.16,18.73,8.84,18.75,22.52,0,19.5-.39,39,.17,58.48.27,9.71-3.28,16.69-11.51,20.91-6.68,3.42-8.54,8-8.38,15.39.56,24.65.21,49.32.19,74,0,10.24-3.29,13.56-13.34,13.56-12,0-24,.05-36,0-8.09,0-12-3.86-12-11.95q-.09-40.74.06-81.49a9,9,0,0,1,2.26-5.61,30.24,30.24,0,0,0,8.65-22.15q-.3-28.49,0-57c.1-9.63-.35-19-6.84-27Z" transform="translate(-385.1 -257.16)"/><path class="cls-1" d="M722.35,437a33.53,33.53,0,1,1,33.52-33.29A33.76,33.76,0,0,1,722.35,437Z" transform="translate(-385.1 -257.16)"/><path class="cls-2" d="M692.23,644.08c0,8.09,3.91,11.92,12,11.95,12,0,24,0,36,0,10,0,13.33-3.32,13.34-13.56,0-24.66.37-49.33-.19-74-.16-7.43,1.7-12,8.38-15.39,8.23-4.22,11.78-11.2,11.51-20.91-.56-19.48-.16-39-.17-58.48,0-13.68-5.27-21.36-18.75-22.52-19-1.64-38.21-1.32-57.33-1.84l-.67,1.5c6.49,8,6.94,17.37,6.84,27q-.28,28.5,0,57A30.24,30.24,0,0,1,694.55,557a9,9,0,0,0-2.26,5.61Q692.08,603.33,692.23,644.08Zm-3.45-240.6A33.33,33.33,0,0,0,722.35,437a33.53,33.53,0,0,0,0-67.06A33.28,33.28,0,0,0,688.78,403.48ZM558.68,437a33.51,33.51,0,1,0-33.77-33.49A33.62,33.62,0,0,0,558.68,437Zm48.18-33.46A33.54,33.54,0,1,0,640.4,370,33.37,33.37,0,0,0,606.86,403.55Zm-.08,152.61c2.69,1.45,3.62,3.3,3.58,6.36-.15,13.48-.06,27-.06,40.46s0,27,0,40.47c0,8.88,3.62,12.53,12.36,12.57,11.82,0,23.64,0,35.47,0,10.17,0,13.53-3.3,13.54-13.39,0-24.81.32-49.63-.17-74.43-.14-7.16,1.59-11.65,8.13-15,8.42-4.29,12-11.39,11.7-21.29-.59-19.3-.18-38.63-.19-57.95,0-14.16-5.26-21.93-19.43-22.89a442.73,442.73,0,0,0-60.29-.21c-15.71,1.09-20.62,8.54-20.6,24.43,0,19.82.15,39.64-.08,59.45a18.48,18.48,0,0,0,8.13,16.18A68.26,68.26,0,0,0,606.78,556.16Zm-78.35,87.33c0,8.91,3.61,12.5,12.37,12.53q18.5,0,37,0c8.07,0,11.94-3.82,12-12q.09-40.74-.07-81.47A9,9,0,0,0,587.4,557a30.21,30.21,0,0,1-8.61-22.15q.3-28.24,0-56.48c-.09-9.77.2-19.33,7.39-28.21-18.89,0-36.57-.71-54.17.21-16.91.88-23.18,8.65-23.15,25.44,0,19.83.11,39.65-.05,59.48a17.77,17.77,0,0,0,7.35,15.06c2.1,1.63,4.17,3.48,6.56,4.51,4.93,2.13,5.83,5.7,5.79,10.71C528.28,591.51,528.38,617.5,528.43,643.49ZM897,257.16V769H385.1V257.16Z" transform="translate(-385.1 -257.16)"/><path class="cls-1" d="M671.72,451.09c14.17,1,19.43,8.73,19.43,22.89,0,19.32-.4,38.65.19,57.95.3,9.9-3.28,17-11.7,21.29-6.54,3.33-8.27,7.82-8.13,15,.49,24.8.19,49.62.17,74.43,0,10.09-3.37,13.39-13.54,13.39-11.83,0-23.65,0-35.47,0-8.74,0-12.33-3.69-12.36-12.57,0-13.49,0-27,0-40.47s-.09-27,.06-40.46c0-3.06-.89-4.91-3.58-6.36a68.26,68.26,0,0,1-7.9-5.22,18.48,18.48,0,0,1-8.13-16.18c.23-19.81.09-39.63.08-59.45,0-15.89,4.89-23.34,20.6-24.43A442.73,442.73,0,0,1,671.72,451.09Z" transform="translate(-385.1 -257.16)"/><path class="cls-1" d="M640.52,437a33.52,33.52,0,1,1,33.41-33.34A33.37,33.37,0,0,1,640.52,437Z" transform="translate(-385.1 -257.16)"/><path class="cls-1" d="M589.68,562.57q.21,40.73.07,81.47c0,8.15-3.89,12-12,12q-18.49.06-37,0c-8.76,0-12.36-3.62-12.37-12.53,0-26-.15-52,.09-78,0-5-.86-8.58-5.79-10.71-2.39-1-4.46-2.88-6.56-4.51a17.77,17.77,0,0,1-7.35-15.06c.16-19.83.09-39.65.05-59.48,0-16.79,6.24-24.56,23.15-25.44,17.6-.92,35.28-.21,54.17-.21-7.19,8.88-7.48,18.44-7.39,28.21q.26,28.23,0,56.48A30.21,30.21,0,0,0,587.4,557,9,9,0,0,1,589.68,562.57Z" transform="translate(-385.1 -257.16)"/><path class="cls-1" d="M592,403.46A33.53,33.53,0,1,1,558.12,370,33.62,33.62,0,0,1,592,403.46Z" transform="translate(-385.1 -257.16)"/></svg>