<svg id="Layer_1" data-name="Layer 1" xmlns="http://www.w3.org/2000/svg" viewBox="0 0 511.82 511.91"><defs><style>.cls-1{fill:#d4e157;}.cls-2{fill:#fff;}</style></defs><title>icon-ambition2-lime</title><path class="cls-1" d="M506.4,455.85c11.86-11.88,25.86-11.86,37.84,0q35.81,35.61,71.4,71.41a38.76,38.76,0,0,1,3.25,4.43L792.34,361.9c-8.2-7.85-16.14-15.39-24-23-4.69-4.54-5.84-9.95-3.31-16,2.25-5.37,6.34-8.59,12.16-9,9-.69,18-1.14,26.94-1.59,20-1,39.93-1.93,59.9-2.91,14.19-.69,20.28,6,19.4,20.35-1.42,23.11-2.34,46.25-3.5,69.38-.25,5-.36,10-1,15-.91,6.72-5.14,11.24-11.29,13.47-5.94,2.15-11-.09-15.33-4.54-7.39-7.65-14.87-15.2-23.57-24.06-1.43,2.24-2.19,4-3.46,5.32q-92.93,93-185.92,186c-9.9,9.9-21.11,12-31.62,5.68a39.37,39.37,0,0,1-7.28-6q-35.05-34.93-70-70c-1.38-1.4-2.25-3.32-3.83-5.72-6.77,6.94-12,12.36-17.24,17.66-20.13,20.17-40.62,40-60.31,60.58-11.32,11.83-28,14.28-40.78-.29-7.19-8.18-11.44-16.5-7.12-27.11a32.65,32.65,0,0,1,6.92-10.22Q457.1,505.18,506.4,455.85Z" transform="translate(-385.03 -257.09)"/><path class="cls-1" d="M827.35,440.89c5.9,2.79,7.06,6.1,7.06,10.82q-.21,127-.09,254c0,10-2.41,12.39-12.33,12.38q-27.25,0-54.5,0c-7.4,0-10.5-2.91-10.51-10.09q0-96,.08-192a8.19,8.19,0,0,1,1.89-5.27C781.73,487.3,804.64,464,827.35,440.89Z" transform="translate(-385.03 -257.09)"/><path class="cls-1" d="M726.28,543.43c0,17.92,0,34.39,0,50.86q0,56,0,111.94c0,9.38-2.44,11.81-11.81,11.81q-27.73,0-55.47,0c-7.62,0-10.68-3-10.69-10.54q-.06-42,.06-84a8,8,0,0,1,1.89-5.19c6-6,12.39-11.6,18.41-17.57q26.43-26.24,52.68-52.63C722.58,546.88,723.9,545.68,726.28,543.43Z" transform="translate(-385.03 -257.09)"/><path class="cls-1" d="M618.19,632.24q0,37.69,0,75.41c0,7.44-2.91,10.36-10.2,10.38q-28.71.08-57.43,0c-6.42,0-9.6-3.09-9.6-9.44q-.08-66.68,0-133.35c0-.78.13-1.57.34-3.72,10.38,10.46,20.07,19.84,29.32,29.63,13,13.77,26.53,26.49,47.23,26.47C618,629.63,618.19,630.93,618.19,632.24Z" transform="translate(-385.03 -257.09)"/><path class="cls-2" d="M441.32,718q29.71.12,59.43,0c5.57,0,9-3.46,9-9.11.07-45.1,0-90.21,0-136.49-2,1.84-3.18,2.91-4.32,4.05C492.67,589.29,479.79,602.07,467,615a54.74,54.74,0,0,1-29.41,15.77c-1.73.33-3.47.61-5.42.94,0,26.17-.07,52,.06,77.74C432.29,714.61,436,718,441.32,718Zm109.23,0q28.71.09,57.43,0c7.29,0,10.19-2.94,10.2-10.38q.09-37.71,0-75.41c0-1.31-.2-2.61-.37-4.63-20.7,0-34.2-12.7-47.23-26.47-9.25-9.79-18.94-19.17-29.32-29.63-.21,2.15-.34,2.94-.34,3.72q0,66.67,0,133.35C541,714.93,544.13,718,550.55,718ZM757,708c0,7.18,3.11,10.08,10.51,10.09q27.25,0,54.5,0c9.92,0,12.34-2.42,12.33-12.38q0-127,.09-254c0-4.72-1.16-8-7.06-10.82C804.64,464,781.73,487.3,759,510.69a8.19,8.19,0,0,0-1.89,5.27Q756.91,612,757,708ZM659,718q27.74.06,55.47,0c9.37,0,11.81-2.43,11.81-11.81q0-56,0-111.94c0-16.47,0-32.94,0-50.86-2.38,2.25-3.7,3.45-5,4.71Q695,574.47,668.63,600.77c-6,6-12.42,11.57-18.41,17.57a8,8,0,0,0-1.89,5.19q-.17,42-.06,84C648.28,715,651.34,718,659,718ZM530.42,519.87q34.94,35.07,70,70a39.37,39.37,0,0,0,7.28,6c10.51,6.29,21.72,4.22,31.62-5.68q93-93,185.92-186c1.27-1.28,2-3.08,3.46-5.32,8.7,8.86,16.18,16.41,23.57,24.06,4.3,4.45,9.39,6.69,15.33,4.54,6.15-2.23,10.38-6.75,11.29-13.47.67-4.94.78-10,1-15,1.16-23.13,2.08-46.27,3.5-69.38.88-14.32-5.21-21-19.4-20.35-20,1-39.94,1.91-59.9,2.91-9,.45-18,.9-26.94,1.59-5.82.45-9.91,3.67-12.16,9-2.53,6-1.38,11.45,3.31,16,7.88,7.62,15.82,15.16,24,23L618.89,531.74a38.76,38.76,0,0,0-3.25-4.43Q580,491.57,544.24,455.9c-12-11.91-26-11.93-37.84,0q-49.27,49.36-98.34,98.92A32.65,32.65,0,0,0,401.14,565c-4.32,10.61-.07,18.93,7.12,27.11,12.8,14.57,29.46,12.12,40.78.29,19.69-20.59,40.18-40.41,60.31-60.58,5.29-5.3,10.47-10.72,17.24-17.66C528.17,516.55,529,518.47,530.42,519.87ZM896.85,257.09V769H385V257.09Z" transform="translate(-385.03 -257.09)"/><path class="cls-1" d="M509.83,572.41c0,46.28,0,91.39,0,136.49,0,5.65-3.47,9.09-9,9.11q-29.72.13-59.43,0c-5.32,0-9-3.41-9.06-8.6-.13-25.79-.06-51.57-.06-77.74,1.95-.33,3.69-.61,5.42-.94A54.74,54.74,0,0,0,467,615c12.76-12.9,25.64-25.68,38.48-38.51C506.65,575.32,507.86,574.25,509.83,572.41Z" transform="translate(-385.03 -257.09)"/></svg>