<svg id="Layer_1" data-name="Layer 1" xmlns="http://www.w3.org/2000/svg" xmlns:xlink="http://www.w3.org/1999/xlink" viewBox="0 0 390 284.76"><defs><style>.cls-1{fill:url(#linear-gradient);}.cls-2{fill:url(#linear-gradient-2);}.cls-3{fill:url(#linear-gradient-3);}.cls-4{fill:url(#linear-gradient-4);}.cls-5{fill:url(#linear-gradient-5);}</style><linearGradient id="linear-gradient" x1="753.1" y1="512.99" x2="836" y2="512.99" gradientUnits="userSpaceOnUse"><stop offset="0" stop-color="#8bc34a"/><stop offset="1" stop-color="#ff0"/></linearGradient><linearGradient id="linear-gradient-2" x1="707.85" y1="513.01" x2="771.9" y2="513.01" xlink:href="#linear-gradient"/><linearGradient id="linear-gradient-3" x1="588.94" y1="512.98" x2="693.04" y2="512.98" xlink:href="#linear-gradient"/><linearGradient id="linear-gradient-4" x1="510.05" y1="513.02" x2="574.12" y2="513.02" xlink:href="#linear-gradient"/><linearGradient id="linear-gradient-5" x1="446" y1="512.99" x2="528.88" y2="512.99" xlink:href="#linear-gradient"/></defs><title>icon-connectivity</title><path class="cls-1" d="M758.1,374.62c6-5.56,15-5.35,21.13.82a193.27,193.27,0,0,1,55.95,120.7A28.83,28.83,0,0,0,836,500v26c-1.64,10.16-2.79,20.43-5,30.46-8,36.2-25.49,67.34-51.41,93.76-6.33,6.45-15.33,6.83-21.5,1.17-6.4-5.89-6.79-15-.27-21.82,17.94-18.65,32-39.74,39.57-64.57q27.78-91.47-35.17-163.79c-1.54-1.76-3.24-3.36-4.77-5.12C751.53,389.31,751.82,380.41,758.1,374.62Z" transform="translate(-446 -370.61)"/><path class="cls-2" d="M712.84,419.91c6.1-5.59,15-5.33,21.12.87A130.72,130.72,0,0,1,762,462.92c6.62,16.05,9.72,32.83,9.88,51.15-.5,34.6-13,65.28-37.72,90.91-6.11,6.33-14.89,6.81-21.09,1.35A14.63,14.63,0,0,1,712,584.92c10.86-11.79,19.89-24.67,24.59-40.1,10.92-35.81,4.69-68.39-19.12-97.44-1.8-2.19-3.85-4.17-5.64-6.35C706.29,434.32,706.75,425.48,712.84,419.91Z" transform="translate(-446 -370.61)"/><path class="cls-3" d="M641.17,460.89a52.09,52.09,0,1,1-52.23,51.91A52,52,0,0,1,641.17,460.89Z" transform="translate(-446 -370.61)"/><path class="cls-4" d="M570.36,585.23c5.43,6.74,4.77,15.48-1.51,21.06-6.05,5.37-14.71,5.08-20.71-1a130.9,130.9,0,0,1-28.31-42.57c-6.6-16.07-9.64-32.85-9.78-50.79.59-34.6,12.95-65,37.28-90.49,6.43-6.74,15.44-7.34,21.84-1.51s6.74,15,.24,21.81c-18.32,19.3-28.53,42-29.15,68.68-.61,26.25,7.84,49.37,25.14,69.2C567,581.5,568.8,583.29,570.36,585.23Z" transform="translate(-446 -370.61)"/><path class="cls-5" d="M502.35,375.78c6.49-6.61,15.76-6.86,21.88-.89s6.29,15-.35,21.85c-21.33,22-36.48,47.6-43.09,77.61-12.57,57,.57,107.53,39.61,151.14,1.22,1.37,2.53,2.66,3.74,4,6.27,7.09,6.16,15.88-.26,21.86-6.1,5.68-15.13,5.3-21.49-1.15a193.7,193.7,0,0,1-34.58-47.46,190.75,190.75,0,0,1-21-72.93A30.56,30.56,0,0,0,446,526V500c1.66-10.31,2.8-20.74,5.08-30.91C459.14,433.08,476.55,402.08,502.35,375.78Z" transform="translate(-446 -370.61)"/></svg>