<svg id="Layer_1" data-name="Layer 1" xmlns="http://www.w3.org/2000/svg" xmlns:xlink="http://www.w3.org/1999/xlink" viewBox="0 0 264.46 286.07"><defs><style>.cls-1{fill:url(#linear-gradient);}.cls-2{fill:url(#linear-gradient-2);}.cls-3{fill:url(#linear-gradient-3);}.cls-4{fill:url(#linear-gradient-4);}.cls-5{fill:url(#linear-gradient-5);}.cls-6{fill:url(#linear-gradient-6);}</style><linearGradient id="linear-gradient" x1="692.18" y1="552.69" x2="773.27" y2="552.69" gradientUnits="userSpaceOnUse"><stop offset="0" stop-color="#8bc34a"/><stop offset="1" stop-color="#ff0"/></linearGradient><linearGradient id="linear-gradient-2" x1="688.78" y1="403.51" x2="755.87" y2="403.51" xlink:href="#linear-gradient"/><linearGradient id="linear-gradient-3" x1="590.75" y1="552.99" x2="691.36" y2="552.99" xlink:href="#linear-gradient"/><linearGradient id="linear-gradient-4" x1="606.86" y1="403.5" x2="673.93" y2="403.5" xlink:href="#linear-gradient"/><linearGradient id="linear-gradient-5" x1="508.82" y1="552.94" x2="589.79" y2="552.94" xlink:href="#linear-gradient"/><linearGradient id="linear-gradient-6" x1="524.91" y1="403.5" x2="591.97" y2="403.5" xlink:href="#linear-gradient"/></defs><title>icon-people</title><path class="cls-1" d="M773.26,532.18c.27,9.71-3.28,16.69-11.51,20.91-6.68,3.42-8.54,8-8.38,15.39.56,24.65.21,49.32.19,74,0,10.24-3.29,13.56-13.34,13.56-12,0-24,.05-36,0-8.09,0-12-3.86-12-11.95q-.09-40.74.06-81.49a9,9,0,0,1,2.26-5.61,30.24,30.24,0,0,0,8.65-22.15q-.3-28.49,0-57c.1-9.63-.35-19-6.84-27l.67-1.5c19.12.52,38.31.2,57.33,1.84,13.48,1.16,18.73,8.84,18.75,22.52C773.1,493.2,772.7,512.7,773.26,532.18Z" transform="translate(-508.82 -369.98)"/><path class="cls-2" d="M722.37,370a33.53,33.53,0,1,1-33.59,33.5A33.28,33.28,0,0,1,722.37,370Z" transform="translate(-508.82 -369.98)"/><path class="cls-3" d="M691.34,531.93c.3,9.9-3.28,17-11.7,21.29-6.54,3.33-8.27,7.82-8.13,15,.49,24.8.19,49.62.17,74.43,0,10.09-3.37,13.39-13.54,13.39-11.83,0-23.65,0-35.47,0-8.74,0-12.33-3.69-12.36-12.57,0-13.49,0-27,0-40.47s-.09-27,.06-40.46c0-3.06-.89-4.91-3.58-6.36a68.26,68.26,0,0,1-7.9-5.22,18.48,18.48,0,0,1-8.13-16.18c.23-19.81.09-39.63.08-59.45,0-15.89,4.89-23.34,20.6-24.43a442.73,442.73,0,0,1,60.29.21c14.17,1,19.43,8.73,19.43,22.89C691.16,493.3,690.75,512.63,691.34,531.93Z" transform="translate(-508.82 -369.98)"/><path class="cls-4" d="M640.52,437a33.52,33.52,0,1,1,33.41-33.34A33.37,33.37,0,0,1,640.52,437Z" transform="translate(-508.82 -369.98)"/><path class="cls-5" d="M586.19,450.11c-7.19,8.88-7.48,18.44-7.39,28.21q.26,28.23,0,56.48A30.21,30.21,0,0,0,587.4,557a9,9,0,0,1,2.28,5.62q.21,40.73.07,81.47c0,8.15-3.89,12-12,12q-18.49.06-37,0c-8.76,0-12.36-3.62-12.37-12.53,0-26-.15-52,.09-78,0-5-.86-8.58-5.79-10.71-2.39-1-4.46-2.88-6.56-4.51a17.77,17.77,0,0,1-7.35-15.06c.16-19.83.09-39.65.05-59.48,0-16.79,6.24-24.56,23.15-25.44C549.62,449.4,567.3,450.11,586.19,450.11Z" transform="translate(-508.82 -369.98)"/><path class="cls-6" d="M592,403.46A33.53,33.53,0,1,1,558.12,370,33.62,33.62,0,0,1,592,403.46Z" transform="translate(-508.82 -369.98)"/></svg>