<svg id="Layer_1" data-name="Layer 1" xmlns="http://www.w3.org/2000/svg" xmlns:xlink="http://www.w3.org/1999/xlink" viewBox="0 0 512 505"><defs><style>.cls-1{fill:url(#linear-gradient);}.cls-2{fill:url(#linear-gradient-2);}.cls-3{fill:url(#linear-gradient-3);}.cls-4{fill:url(#linear-gradient-4);}.cls-5{fill:url(#linear-gradient-5);}.cls-6{fill:url(#linear-gradient-6);}.cls-7{fill:url(#linear-gradient-7);}.cls-8{fill:url(#linear-gradient-8);}.cls-9{fill:url(#linear-gradient-9);}.cls-10{fill:url(#linear-gradient-10);}</style><linearGradient id="linear-gradient" x1="855.79" y1="479" x2="897" y2="479" gradientUnits="userSpaceOnUse"><stop offset="0" stop-color="#8bc34a"/><stop offset="1" stop-color="#ff0"/></linearGradient><linearGradient id="linear-gradient-2" x1="827.39" y1="640.04" x2="868.5" y2="640.04" xlink:href="#linear-gradient"/><linearGradient id="linear-gradient-3" x1="427.97" y1="517.66" x2="854.06" y2="517.66" xlink:href="#linear-gradient"/><linearGradient id="linear-gradient-4" x1="774.07" y1="337.5" x2="815.09" y2="337.5" xlink:href="#linear-gradient"/><linearGradient id="linear-gradient-5" x1="702.25" y1="745.24" x2="743.34" y2="745.24" xlink:href="#linear-gradient"/><linearGradient id="linear-gradient-6" x1="620.52" y1="281.58" x2="661.56" y2="281.58" xlink:href="#linear-gradient"/><linearGradient id="linear-gradient-7" x1="538.82" y1="745.43" x2="579.77" y2="745.43" xlink:href="#linear-gradient"/><linearGradient id="linear-gradient-8" x1="466.89" y1="337.74" x2="507.94" y2="337.74" xlink:href="#linear-gradient"/><linearGradient id="linear-gradient-9" x1="413.49" y1="640.39" x2="454.57" y2="640.39" xlink:href="#linear-gradient"/><linearGradient id="linear-gradient-10" x1="385" y1="479.41" x2="426.19" y2="479.41" xlink:href="#linear-gradient"/></defs><title>icon-community</title><path class="cls-1" d="M897,475v8c-2.73,7.74-7.17,13.86-15.61,16A20.56,20.56,0,1,1,894.82,470C895.63,471.65,896.28,473.34,897,475Z" transform="translate(-385 -261)"/><path class="cls-2" d="M847.72,619.49a20.56,20.56,0,1,1-20.33,20.42A20.49,20.49,0,0,1,847.72,619.49Z" transform="translate(-385 -261)"/><path class="cls-3" d="M853.72,499.18c1.58,9.56-2.53,17.23-8.55,24.09-9.57,10.91-22.08,17.52-35,23.5-1.65.77-3.33,1.45-6.57,2.85,2.37,1.89,4.24,3.13,5.81,4.68,10,9.86,19.22,20.37,24.43,33.72,3.84,9.83,4,19.32-2.09,28.6A184,184,0,0,0,820,637c-5.43,11.14-14.76,15.79-26.32,17.12-13.32,1.54-26.2-1-39-4.5-2.06-.56-4.12-1.17-6.92-2,.26,3.32.47,6,.69,8.79,1,12.84,1.26,25.64-2.56,38.15-3.37,11-9.62,19.07-21.28,22.46a239.54,239.54,0,0,0-23.45,8.5c-8,3.26-15.64,2.47-23.16-1.18-13.34-6.49-22.42-17.55-31-29.15-2-2.66-3.73-5.44-5.85-8.56-4.31,5.83-7.78,11.82-12.49,16.58-7.19,7.29-14.74,14.44-23.08,20.33-7.67,5.41-16.65,5.87-25.75,2-8.27-3.49-16.76-6.48-25.29-9.28-7.33-2.41-12.95-7-15.38-14a118.8,118.8,0,0,1-6.09-26c-1-9.17-.23-18.54-.23-27.45-8.91,1.73-18.59,4.15-28.43,5.31a78.32,78.32,0,0,1-20.34-.53c-9.49-1.39-17-6.23-21.53-15.22a170.5,170.5,0,0,0-11.53-19.86c-8.16-11.8-7.42-23.93-.52-35.25,6.09-10,14.1-18.82,21.39-28.07a50,50,0,0,1,5.4-5.14c-7.95-4.19-15.63-7.49-22.49-12a112.18,112.18,0,0,1-18.77-15.51c-6.89-7.16-9.72-16-7.34-26.23,2-8.58,3.34-17.33,4.6-26.05,1.33-9.17,6.52-15.49,14-20.21,11.13-7,23.68-9.5,36.49-11,4.26-.5,8.53-.81,12.76-1.21-3.48-8.71-7.18-17.06-10.14-25.66-3.44-10-5-20.37-2.65-31a24.69,24.69,0,0,1,8.74-14.16c6.73-5.46,13.64-10.76,19.87-16.75,9.58-9.21,20.56-9.92,32.49-6.7,12.25,3.31,22.91,9.76,33.14,17,1.86,1.31,3.7,2.66,5.89,4.24,2.14-7.19,3.48-14.1,6.24-20.4a154,154,0,0,1,13-24.57c5.91-8.76,14.68-13.12,25.71-12.6,8.48.41,17,.27,25.49,0,8.79-.26,15.86,3.1,21.79,9.29,9.13,9.54,13.89,21.41,17.73,33.72,1.38,4.42,2.45,8.93,3.71,13.6,8.83-5.31,17-10.71,25.65-15.3,9-4.82,18.79-8.28,29.22-6.65a33.11,33.11,0,0,1,13.53,5.52c6.92,4.88,12.79,11.25,19.72,16.12,12.73,9,15.5,21.58,12.53,35.35-2.42,11.27-7.18,22-11,33-.59,1.7-1.5,3.28-2.45,5.32,7.5.91,14.84,1.07,21.77,2.83a153,153,0,0,1,26.75,9.1c8.71,4,13.91,11.5,15.35,21.41C850.15,480.2,852.14,489.66,853.72,499.18ZM835,512.77l-.73-1.09L786.55,520c-2.91-16.5-5.71-32.48-8.57-48.71l48.08-8.6c0-.45.06-.91.1-1.36-3.84-1.49-7.56-3.73-11.52-4.32-13.13-1.95-26.32-4.17-39.53-4.58-8.1-.25-12.57-5.64-8.16-13.8,5.89-10.93,10.64-22.51,15.24-34.06,1.82-4.56,1.91-9.8,2.79-14.74l-1.44-.49L752.17,426.6l-37.91-31.83,31.26-37.3c-.19-.37-.37-.74-.56-1.1-3.53,1.08-7.16,1.91-10.57,3.3-12.81,5.21-23.67,13.48-34.29,22.13-8.08,6.57-13.26,4.54-15.13-5.65-2.72-14.77-6.14-29.34-14-42.41a67.68,67.68,0,0,0-4.19-5.58l-1.11.5v48.19H616.13v-48.3l-1.76-.57c-3.12,6.11-7,11.95-9.16,18.39-3.42,10.39-5.78,21.14-8.34,31.8-1.88,7.82-7.14,9.94-13.55,5.12-1.47-1.1-2.77-2.43-4.28-3.45-9-6-17.8-12.29-27.08-17.79-4.49-2.66-9.86-3.83-14.84-5.67-.22.46-.45.91-.67,1.36l31.29,37.38-37.92,31.8-31.37-37.25-1.18.45c.4,3.37.55,6.79,1.24,10.1,3,14.36,9.69,27.2,16.83,39.84,4,7.05,1,12.06-7.05,12.44-8.65.42-17.33.65-25.92,1.6-9.34,1-18.53,3-27.61,8.72L504,471.61c-2.9,16.43-5.7,32.28-8.59,48.69l-48-8.33-.64,1.23c3.32,2.91,6.26,6.54,10,8.6,11.23,6.07,22.62,11.91,34.29,17.1,9.68,4.31,10.59,9.05,2.69,16.36A287.42,287.42,0,0,0,472,577.17c-4.46,5.1-7.56,11.38-11.26,17.14l1.38,1.13,42.3-24.31L529.15,614l-42,24.35c.14.6.28,1.2.43,1.81,3.43,0,6.87.08,10.3,0,14.52-.42,28.12-4.88,41.67-9.56,7.83-2.7,12.2,1.38,11.05,9.59-1.3,9.22-2.55,18.49-3,27.78-.39,8.53-.07,17.18,3.92,26l17.14-46.8,46.47,17c-5.62,15.56-11.06,30.6-16.5,45.63l1.14.75c2.23-1.65,4.56-3.18,6.69-5,10.53-8.78,18.5-19.75,24.84-31.68,6.52-12.31,13.09-11.75,19.52-.26,5.16,9.22,12,17.59,18.7,25.82,3.49,4.26,8.36,7.38,12.61,11l1.19-1.15-16.48-45.53,46.5-16.89,16.83,46a18.72,18.72,0,0,0,2.89-7.22c2.81-15.34,1.06-30.53-1.58-45.69-1.46-8.35,3.17-12.19,11.3-9.68,9.68,3,19.39,6,29.26,8.25,7.49,1.72,15.24,2.5,23.82.12l-43-24.93c8.39-14.52,16.52-28.58,24.78-42.85l43.49,25c-1.36-3.23-2-5.06-2.88-6.76-7.32-14.06-18.82-24.44-30.51-34.66-7.59-6.64-6.3-11.57,2.85-15.7,12.08-5.47,23.87-11.63,35.53-18C829.52,518.91,832.08,515.48,835,512.77Z" transform="translate(-385 -261)"/><path class="cls-4" d="M794.55,317a20.51,20.51,0,1,1-20.48,20.22A20.51,20.51,0,0,1,794.55,317Z" transform="translate(-385 -261)"/><path class="cls-5" d="M742.44,739a20.86,20.86,0,0,1-13.22,25.63c-1.4.47-2.81.9-4.22,1.35h-4c-8.69-2.18-15.64-6.38-18.09-15.72A20.55,20.55,0,0,1,742.44,739Z" transform="translate(-385 -261)"/><path class="cls-6" d="M659.4,272.39a20.52,20.52,0,1,1-27.8-9c1.74-.9,3.6-1.6,5.4-2.4h8C651,263.28,656.39,266.23,659.4,272.39Z" transform="translate(-385 -261)"/><path class="cls-7" d="M578.9,739.43a20.59,20.59,0,0,1-10.56,24.41c-1.45.71-2.89,1.44-4.34,2.16h-9c-9.85-3.71-16.41-10-16.17-21.29a20.24,20.24,0,0,1,17.23-19.64A20.6,20.6,0,0,1,578.9,739.43Z" transform="translate(-385 -261)"/><path class="cls-8" d="M507.94,337.53a20.53,20.53,0,1,1-20.48-20.32A20.76,20.76,0,0,1,507.94,337.53Z" transform="translate(-385 -261)"/><path class="cls-9" d="M434.14,619.88a20.34,20.34,0,0,1,20.43,20.71,20.54,20.54,0,0,1-41.08-.27A20.29,20.29,0,0,1,434.14,619.88Z" transform="translate(-385 -261)"/><path class="cls-10" d="M425.91,475.82a20.58,20.58,0,0,1-38.78,12.53L385,484v-9c3.66-9.05,9.33-15.66,19.92-16.09A20.49,20.49,0,0,1,425.91,475.82Z" transform="translate(-385 -261)"/></svg>