<svg id="Layer_1" data-name="Layer 1" xmlns="http://www.w3.org/2000/svg" xmlns:xlink="http://www.w3.org/1999/xlink" viewBox="0 0 511.83 511.92"><defs><style>.cls-1{fill:#fff;}.cls-2{fill:url(#linear-gradient);}.cls-3{fill:url(#linear-gradient-2);}.cls-4{fill:url(#linear-gradient-3);}.cls-5{fill:url(#linear-gradient-4);}.cls-6{fill:url(#linear-gradient-5);}.cls-7{fill:url(#linear-gradient-6);}.cls-8{fill:url(#linear-gradient-7);}.cls-9{fill:url(#linear-gradient-8);}.cls-10{fill:url(#linear-gradient-9);}</style><linearGradient id="linear-gradient" x1="433.61" y1="716.93" x2="725.62" y2="716.93" gradientUnits="userSpaceOnUse"><stop offset="0" stop-color="#8bc34a"/><stop offset="1" stop-color="#ff0"/></linearGradient><linearGradient id="linear-gradient-2" x1="499.91" y1="625" x2="644.04" y2="625" xlink:href="#linear-gradient"/><linearGradient id="linear-gradient-3" x1="393.55" y1="458.34" x2="636.78" y2="458.34" xlink:href="#linear-gradient"/><linearGradient id="linear-gradient-4" x1="539.8" y1="548.27" x2="603.25" y2="548.27" xlink:href="#linear-gradient"/><linearGradient id="linear-gradient-5" x1="253.54" y1="368.75" x2="444.92" y2="368.75" xlink:href="#linear-gradient"/><linearGradient id="linear-gradient-6" x1="377.91" y1="306.32" x2="416.86" y2="306.32" xlink:href="#linear-gradient"/><linearGradient id="linear-gradient-7" x1="230.81" y1="487.74" x2="303.78" y2="487.74" xlink:href="#linear-gradient"/><linearGradient id="linear-gradient-8" x1="260.81" y1="572.58" x2="296.97" y2="572.58" xlink:href="#linear-gradient"/><linearGradient id="linear-gradient-9" x1="249.03" y1="472.77" x2="281.1" y2="472.77" xlink:href="#linear-gradient"/></defs><title>icon-robot</title><path class="cls-1" d="M733.67,236.8V748.72H221.84V236.8Zm-8.25,508.5a27.89,27.89,0,0,0,.19-3.11c-1.53-29-26.3-53.29-55.32-53.4-60.33-.23-120.66-.4-181,.08-23.61.19-40.63,12.29-50.93,33.49a44.1,44.1,0,0,0-4.64,22.94ZM644,676.44V573.56c-14.49,32-40,45.17-71.83,46.61-32.34,1.45-57.59-11.41-72.3-41.71q6.54,48.9,13.1,98ZM633.92,564.11c5.08-16.32,3.56-31.53-5.95-45.79-3.14-4.7-6.17-9.56-9.89-13.78-13.11-14.87-27.19-28.92-39.65-44.29-38.69-47.75-76.8-96-115.13-144-2.64-3.31-5.2-6.68-8.13-10.46-.33,1.3-.48,1.77-.56,2.26-.24,1.48-.47,3-.68,4.45-2.19,15.93-8.1,29.83-19.79,41.49-13.91,13.87-26.92,28.63-40.59,43.3,15.35,22.86,30.34,45.07,45.23,67.34,25,37.37,49.82,74.84,74.88,112.15,12.77,19,29.82,32,53.31,33.86C599.82,613.18,624.05,595.81,633.92,564.11ZM432.83,336.79c15.55-17.92,16.2-41.32,1.35-59.85-11.64-14.54-26.31-22.78-45.49-17.83-17,4.4-29.14,15.44-37.89,30.46-5.69,9.77-11,19.86-17.46,29.08-25.3,36-51,71.61-76.58,107.38-1,1.39-2,2.8-3.22,4.6,39.58.18,47.86,7.63,54.89,49.2,1.56-1.71,2.7-2.91,3.79-4.16Q372.54,406.24,432.83,336.79ZM300.1,528.08c3.17-.74,3.91-2.7,3.63-5.87-1.64-18.74-3-37.51-4.63-56.25-1.37-15.4-15.64-28.22-32.85-28.25a49.21,49.21,0,0,0-25.61,9.39,23.29,23.29,0,0,0-9.76,18.82,57.5,57.5,0,0,0,.67,12.93c3.36,16.62,7,33.19,10.72,49.73,1.72,7.62,6.34,10.28,14,8.79,6.86-1.32,13.76-2.46,20.59-3.92C284.67,531.8,292.38,529.89,300.1,528.08Zm-3.32,76.29c.08-1.56.22-2.7.18-3.84-.66-20.44-1.34-40.88-2-62l-34.11,6.15c7.45,21,14.66,41.33,21.95,61.9Z" transform="translate(-221.84 -236.8)"/><path class="cls-2" d="M725.61,742.19a27.89,27.89,0,0,1-.19,3.11H433.73a44.1,44.1,0,0,1,4.64-22.94c10.3-21.2,27.32-33.3,50.93-33.49,60.33-.48,120.66-.31,181-.08C699.31,688.9,724.08,713.17,725.61,742.19Z" transform="translate(-221.84 -236.8)"/><path class="cls-3" d="M644,573.56V676.44H513q-6.57-49.16-13.1-98c14.71,30.3,40,43.16,72.3,41.71C604,618.73,629.55,605.6,644,573.56Z" transform="translate(-221.84 -236.8)"/><path class="cls-4" d="M628,518.32c9.51,14.26,11,29.47,5.95,45.79-9.87,31.7-34.1,49.07-66.95,46.53-23.49-1.83-40.54-14.86-53.31-33.86C488.6,539.47,463.77,502,438.78,464.63c-14.89-22.27-29.88-44.48-45.23-67.34,13.67-14.67,26.68-29.43,40.59-43.3,11.69-11.66,17.6-25.56,19.79-41.49.21-1.49.44-3,.68-4.45.08-.49.23-1,.56-2.26,2.93,3.78,5.49,7.15,8.13,10.46,38.33,48,76.44,96.25,115.13,144,12.46,15.37,26.54,29.42,39.65,44.29C621.8,508.76,624.83,513.62,628,518.32ZM571.7,592.94a44.79,44.79,0,1,0-45-45A44.81,44.81,0,0,0,571.7,592.94Z" transform="translate(-221.84 -236.8)"/><path class="cls-1" d="M616.44,548.1a44.86,44.86,0,1,1-44.85-44.73A44.81,44.81,0,0,1,616.44,548.1Zm-44.67,31.84a31.67,31.67,0,1,0-32-31.42A31.53,31.53,0,0,0,571.77,579.94Z" transform="translate(-221.84 -236.8)"/><path class="cls-5" d="M603.25,548a31.73,31.73,0,1,1-32-31.42A31.53,31.53,0,0,1,603.25,548Z" transform="translate(-221.84 -236.8)"/><path class="cls-6" d="M434.18,276.94c14.85,18.53,14.2,41.93-1.35,59.85q-60.25,69.48-120.61,138.88c-1.09,1.25-2.23,2.45-3.79,4.16-7-41.57-15.31-49-54.89-49.2,1.26-1.8,2.22-3.21,3.22-4.6,25.56-35.77,51.28-71.43,76.58-107.38,6.49-9.22,11.77-19.31,17.46-29.08,8.75-15,20.88-26.06,37.89-30.46C407.87,254.16,422.54,262.4,434.18,276.94Zm-9.31,30a27.49,27.49,0,1,0-27.72,26.91A27.45,27.45,0,0,0,424.87,306.91Z" transform="translate(-221.84 -236.8)"/><path class="cls-1" d="M397.7,278.86a27.48,27.48,0,1,1-27.79,27A27.45,27.45,0,0,1,397.7,278.86Zm0,46.93a19.32,19.32,0,0,0,19.2-19.53,19.53,19.53,0,0,0-19.42-19.41,19.73,19.73,0,0,0-19.53,19.89A19.48,19.48,0,0,0,397.66,325.79Z" transform="translate(-221.84 -236.8)"/><path class="cls-7" d="M416.86,306.26a19.48,19.48,0,0,1-38.95.48,19.73,19.73,0,0,1,19.53-19.89A19.53,19.53,0,0,1,416.86,306.26Z" transform="translate(-221.84 -236.8)"/><path class="cls-8" d="M303.73,522.21c.28,3.17-.46,5.13-3.63,5.87-7.72,1.81-15.43,3.72-23.19,5.37-6.83,1.46-13.73,2.6-20.59,3.92-7.71,1.49-12.33-1.17-14-8.79-3.74-16.54-7.36-33.11-10.72-49.73a57.5,57.5,0,0,1-.67-12.93,23.29,23.29,0,0,1,9.76-18.82,49.21,49.21,0,0,1,25.61-9.39c17.21,0,31.48,12.85,32.85,28.25C300.77,484.7,302.09,503.47,303.73,522.21Zm-38.19-26.52a22.77,22.77,0,1,0-23.09-22.5A22.62,22.62,0,0,0,265.54,495.69Z" transform="translate(-221.84 -236.8)"/><path class="cls-9" d="M297,600.53c0,1.14-.1,2.28-.18,3.84l-14,2.24c-7.29-20.57-14.5-40.89-21.95-61.9l34.11-6.15C295.62,559.65,296.3,580.09,297,600.53Z" transform="translate(-221.84 -236.8)"/><path class="cls-1" d="M287.86,472.93A22.71,22.71,0,1,1,265,450.15,22.62,22.62,0,0,1,287.86,472.93Zm-6.76.31a16,16,0,0,0-15.78-16.49A16.29,16.29,0,0,0,249,472.37,16.08,16.08,0,0,0,265,488.79,15.78,15.78,0,0,0,281.1,473.24Z" transform="translate(-221.84 -236.8)"/><path class="cls-10" d="M265.32,456.75a16,16,0,0,1,15.78,16.49A15.78,15.78,0,0,1,265,488.79,16.08,16.08,0,0,1,249,472.37,16.29,16.29,0,0,1,265.32,456.75Z" transform="translate(-221.84 -236.8)"/></svg>