<svg id="Layer_1" data-name="Layer 1" xmlns="http://www.w3.org/2000/svg" viewBox="0 0 900 900"><defs><style>.cls-1{fill:#fff;}.cls-2{fill:#d4e157;}</style></defs><title>icon-iot</title><path class="cls-1" d="M1088.3,526a106.32,106.32,0,0,0,1.43-16.9H1091V963H641.17v-1a84.19,84.19,0,0,0,26.37-4.36c19.9-6.53,35.63-19,47.21-36.42,13.84-20.77,17-43.41,9.93-67.29-3.61-12.24-10.06-22.74-19-32.19-9.84-10.35-20.24-19.18-34-23.6-11.39-3.68-14-7-14.07-19.14q-.15-26.67,0-53.33c.09-32.17.26-64.33.34-96.5,0-3.28.05-5.71,4.63-5.67,19.66.21,39.33,0,59,.19a13.73,13.73,0,0,1,7.29,2.39c18.69,13.09,33.42,30.45,49.47,46.37,14.77,14.65,28.9,29.95,44,44.31,4.34,4.14,4.63,6.71,2,11.59-9.45,17.51-14.53,36-10.93,56.13,3.88,21.72,13.07,40.56,31,53.86,22.82,16.91,48.54,22.09,75.9,14.21,26.33-7.58,45.32-24.45,56.95-49.47,6-12.89,5.22-26.57,5.52-40.22a64.57,64.57,0,0,0-9.19-35.28c-12.38-20.71-29.52-36.12-53.62-40.52-22.24-4.07-44.58-3.22-64.65,9.73-3.66,2.36-6.41,2-9.56-1.3-21.49-22.3-43.15-44.43-64.75-66.63-.69-.71-1.78-1.61-1.71-2.33.09-1,1.08-2.58,1.77-2.62,4.76-.3,9.55-.15,14.32-.34,19-.77,37-5.18,52.1-17.36,22.82-18.42,39.11-40.86,41.27-71.31.27-3.76,1.9-5.3,5.67-5.21,6.66.16,13.34.31,20,0,4.67-.24,6.72,1.48,8,6,5.81,20.32,17,37.13,34.5,49.2,15.85,10.92,33.58,15.63,52.82,14.81,27-1.16,48-13.4,63.74-34.86C1081.82,553.33,1086,540,1088.3,526Z" transform="translate(-191 -63)"/><path class="cls-1" d="M1053.29,503.77c2.45,15.29-.44,29.73-9.06,42.42-6.84,10.07-17,15.84-29.19,18.21-35.87,7-59.2-22-59.83-52.91-.09-26.47,18.31-45.6,45.65-48,12.83-1.1,24.93-.13,35.33,8.47C1046.19,480.28,1051.29,491.22,1053.29,503.77Z" transform="translate(-191 -63)"/><path class="cls-1" d="M864.61,215.66c8.31-8.55,20.36-10,33.29-10.14,18,.45,33.78,7.29,43.24,24.65,9.9,18.17,9.31,36.57-.39,54.91-6.7,12.65-18.27,17.91-31.08,20.76-24.82,5.51-51.4-8.53-58.54-32.74C845,252.22,849,231.74,864.61,215.66Z" transform="translate(-191 -63)"/><path class="cls-1" d="M886.9,721.33c17-2.18,33,.49,46.63,11.44,11.86,9.53,15.78,22.74,14.71,37.46a58.5,58.5,0,0,1-10.68,29.68c-9.25,13.22-21.67,20.17-38.4,20.93-8.89-2.48-18.17-4.06-26.61-7.61-19.8-8.34-26.83-29.77-23.53-48.08,3.06-16.95,11.53-30.37,25.68-39.94C878.11,722.91,882.71,721.87,886.9,721.33Z" transform="translate(-191 -63)"/><path class="cls-1" d="M894.48,342.24c32.39,1.87,57.62-12.13,76.13-38.24,15.74-22.2,14.5-47.51,9.69-72.19-4.44-22.79-21-37.71-40.43-48.8-21.7-12.4-45-16-69.36-8.8-14.76,4.36-26.8,12.95-36.88,24.51-17.52,20.09-25.28,43-20.69,69.66,1.95,11.32,6.54,21.61,12.46,31.35,1.75,2.89,1.44,4.93-1.13,7.33-7,6.54-13.66,13.41-20.5,20.12q-30.84,30.27-61.71,60.52c-5,4.94-5.62,4.8-9.91-.49-3.87-4.77-7.74-9.58-12-13.94-17-17.33-35.32-32.8-59.74-38.88-1-.25-2.07-2.32-2.11-3.57-.26-9-.32-18-.33-27,0-21.83,0-43.66,0-65.49,0-3.26.32-5.88,4.39-6.49,18.73-2.83,33.06-12.76,45-27.15,22.42-27,27.34-65.11,10.36-95.32-16.13-28.7-41-44.51-74.47-44.91h-1.06V63H1091V509.11h-1.27c0-14-3.21-27.37-11.07-39.88a88.21,88.21,0,0,0-40.56-34.87c-23.32-10.1-46.37-10.77-69.54,0-9.33,4.32-16.74,10.94-24,18.26-7.91,8-14.31,16.53-17.88,27.17-1.11,3.32-2.2,6.64-3.36,9.94-1.35,3.83-3.68,5.91-8.19,5.7-7.15-.33-14.33-.06-21.49-.06-10.45,0-10.45,0-12.85-9.81-.24-1-.49-1.94-.77-2.9-6.57-22.68-20.2-40.55-37.76-55.83-13.51-11.76-29.67-18.25-46.17-24.24-3.58-1.3-7-3.17-11-5,1.85-2.12,2.77-3.28,3.79-4.34,19.57-20.22,39.09-40.5,58.85-60.53,1.47-1.48,4.85-2,7.08-1.59,4,.76,7.82,2.75,11.8,3.89C875.88,337.59,885.09,341.7,894.48,342.24Z" transform="translate(-191 -63)"/><path class="cls-1" d="M844.53,485.08c4.07,8.62,6.1,18.45,7.65,28,3.23,19.85-.32,38.51-12.93,54.72a51.33,51.33,0,0,1-10.48,10.39c-8.59,6.08-18,10.23-28.92,10.29-28.65.16-57.29.53-85.94.67-24,.11-48,0-72,0v0q-73.48,0-147,0c-12.42,0-24.4-2.39-34.35-10.16-14.15-11.06-20.64-25.94-20.33-44,.41-24.32,17.07-43.32,40.64-49.28,4.31-1.09,10.18-.92,12.47-3.7s1-8.53,1.37-13c2.32-29.83,12-56.49,33.47-78.13a102.74,102.74,0,0,1,59.93-30c43.7-6.14,80.9,7.47,110.93,39.55,6.22,6.65,10.16,15.56,14.5,23.77,2.32,4.38,5.15,5.34,9.81,5.58,17.92.92,36,1.44,53.65,4,20.42,3,37.41,13.68,51.16,29C834.38,469.58,840.66,476.87,844.53,485.08Z" transform="translate(-191 -63)"/><path class="cls-1" d="M640.28,199.74c-28.72.07-50.87-24.1-48.74-45.37.67-34.52,18.61-54.27,47.82-54.64,29.51-.37,54,22.45,53.62,49.93C692.56,179.37,668.86,199.68,640.28,199.74Z" transform="translate(-191 -63)"/><path class="cls-1" d="M616.87,833.37c21.68-10.71,48.37-6.85,63,9.69,11.81,13.32,14.51,29.2,11,46.28-4.79,23-22.43,37.15-50.66,37.08-14.08-.37-30.5-5.88-41.78-22.26C582.42,880.94,591.54,845.87,616.87,833.37Z" transform="translate(-191 -63)"/><path class="cls-1" d="M558.26,903.88c7.06,18.69,19.78,33.2,36.6,43.84C609.6,957,625.07,962,641.17,962v1H191V511.83h1.64a98.36,98.36,0,0,0,.7,11.65c5.85,49.41,47.92,82.56,99.36,75.59,11.33-1.53,21.35-6.31,30.79-13.23,9.27-6.8,17.76-14.06,23.3-24,4.9-8.8,8.77-18.19,12.83-27.43,1.15-2.63,2-4.71,5.43-4.67,11.17.14,22.33.08,33.5,0,3.06,0,4.31,1.44,4.8,4.47,1.5,9.11,3.21,18.2,5,27.26,3.22,16.11,13.05,28.26,24.74,38.84,13.11,11.86,29,18.45,46.41,21.28,7.31,1.19,14.72,1.77,23.32,2.77-1.76,2.16-2.7,3.49-3.82,4.66-5.9,6.11-11.85,12.17-17.78,18.25-15.7,16.1-31.46,32.15-47.05,48.35-2.43,2.53-4.25,2.61-7.3,1.09a103.83,103.83,0,0,0-14.84-5.87c-21.35-6.82-42.71-8-64,.42-17.76,7-30.25,19.73-38.58,36.62-6.65,13.49-9.21,28-10.2,43-1.1,16.44,2.55,31.5,12,44.9a97.41,97.41,0,0,0,44.27,35.1c21.85,8.75,43.25,8.3,64.16-1.82a97.83,97.83,0,0,0,22-15c25.61-22.8,39.92-61.13,19.24-97.53-4.39-7.73-3.87-12,2.18-18.4,15.44-16.29,30.71-32.76,46.62-48.57,13.91-13.84,28.64-26.87,43-40.3,4.65-4.36,10-5.91,16.38-5.76,15.49.36,31,.12,46.5.13,7.8,0,7.82,0,7.82,7.63q0,74.74,0,149.49c0,1.84,0,3.67-.07,5.5-.36,5.63-3.33,8.69-8.79,10.55-6.12,2.09-12.42,4.14-17.93,7.4-13.51,8-23.77,19.27-32,32.79Q545.2,869.12,558.26,903.88Z" transform="translate(-191 -63)"/><path class="cls-2" d="M281.46,565.38c13.18-.54,26.86-5.58,35.34-20.29,7-12.21,9.3-25.69,9-39.44-.2-9.89-1.45-19.76-9.74-27.28C310.19,473,304,468.62,296.46,466c-15.45-5.37-31.08-4.42-45,3-12.57,6.68-20.76,18.05-23.58,32.93C221.63,534.67,246,565.5,281.46,565.38ZM851.13,273.1c7.14,24.21,33.72,38.25,58.54,32.74,12.81-2.85,24.38-8.11,31.08-20.76,9.7-18.34,10.29-36.74.39-54.91-9.46-17.36-25.29-24.2-43.24-24.65-12.93.17-25,1.59-33.29,10.14C849,231.74,845,252.22,851.13,273.1ZM387.92,819.45c28.31.44,46.36-20,46.49-47.36.14-27.09-22.31-51.77-47.08-51.41-33.27.49-54.31,18.28-54.15,47.86C333.33,796.82,355.17,819.55,387.92,819.45ZM640.28,199.74c28.58-.06,52.28-20.37,52.7-50.08.39-27.48-24.11-50.3-53.62-49.93-29.21.37-47.15,20.12-47.82,54.64C589.41,175.64,611.56,199.81,640.28,199.74ZM955.21,511.49c.63,30.92,24,59.92,59.83,52.91,12.15-2.37,22.35-8.14,29.19-18.21,8.62-12.69,11.51-27.13,9.06-42.42-2-12.55-7.1-23.49-17.1-31.77-10.4-8.6-22.5-9.57-35.33-8.47C973.52,465.89,955.12,485,955.21,511.49ZM333.63,257.22c.11,29.8,20.67,51.28,49.61,50.42,25.21-.74,52.36-20.47,52.2-50.26-.18-27.69-23.39-51.92-52.32-52.58C356.72,204.19,333.53,229,333.63,257.22ZM598.42,904.16c11.28,16.38,27.7,21.89,41.78,22.26,28.23.07,45.87-14.12,50.66-37.08,3.56-17.08.86-33-11-46.28-14.67-16.54-41.36-20.4-63-9.69C591.54,845.87,582.42,880.94,598.42,904.16Zm274.13-90.93c8.44,3.55,17.72,5.13,26.61,7.61,16.73-.76,29.15-7.71,38.4-20.93a58.5,58.5,0,0,0,10.68-29.68c1.07-14.72-2.85-27.93-14.71-37.46-13.62-10.95-29.68-13.62-46.63-11.44-4.19.54-8.79,1.58-12.2,3.88-14.15,9.57-22.62,23-25.68,39.94C845.72,783.46,852.75,804.89,872.55,813.23ZM1038.1,434.36a88.21,88.21,0,0,1,40.56,34.87c7.86,12.51,11.07,25.92,11.07,39.88a106.32,106.32,0,0,1-1.43,16.9c-2.27,14-6.48,27.32-14.9,38.8-15.74,21.46-36.75,33.7-63.74,34.86-19.24.82-37-3.89-52.82-14.81-17.53-12.07-28.69-28.88-34.5-49.2-1.29-4.51-3.34-6.23-8-6-6.65.34-13.33.19-20,0-3.77-.09-5.4,1.45-5.67,5.21-2.16,30.45-18.45,52.89-41.27,71.31-15.09,12.18-33.07,16.59-52.1,17.36-4.77.19-9.56,0-14.32.34-.69,0-1.68,1.66-1.77,2.62-.07.72,1,1.62,1.71,2.33,21.6,22.2,43.26,44.33,64.75,66.63,3.15,3.27,5.9,3.66,9.56,1.3,20.07-12.95,42.41-13.8,64.65-9.73,24.1,4.4,41.24,19.81,53.62,40.52a64.57,64.57,0,0,1,9.19,35.28c-.3,13.65.48,27.33-5.52,40.22-11.63,25-30.62,41.89-56.95,49.47-27.36,7.88-53.08,2.7-75.9-14.21-17.94-13.3-27.13-32.14-31-53.86-3.6-20.16,1.48-38.62,10.93-56.13,2.63-4.88,2.34-7.45-2-11.59-15-14.36-29.18-29.66-44-44.31-16-15.92-30.78-33.28-49.47-46.37a13.73,13.73,0,0,0-7.29-2.39c-19.66-.19-39.33,0-59-.19-4.58,0-4.63,2.39-4.63,5.67-.08,32.17-.25,64.33-.34,96.5q-.08,26.66,0,53.33c.07,12.09,2.68,15.46,14.07,19.14,13.71,4.42,24.11,13.25,34,23.6,9,9.45,15.44,20,19,32.19,7,23.88,3.91,46.52-9.93,67.29-11.58,17.38-27.31,29.89-47.21,36.42A84.19,84.19,0,0,1,641.17,962c-16.1,0-31.57-5-46.31-14.29-16.82-10.64-29.54-25.15-36.6-43.84q-13.14-34.75,6.42-66.92c8.19-13.52,18.45-24.79,32-32.79,5.51-3.26,11.81-5.31,17.93-7.4,5.46-1.86,8.43-4.92,8.79-10.55.11-1.83.07-3.66.07-5.5q0-74.75,0-149.49c0-7.61,0-7.62-7.82-7.63-15.5,0-31,.23-46.5-.13-6.42-.15-11.73,1.4-16.38,5.76-14.32,13.43-29.05,26.46-43,40.3-15.91,15.81-31.18,32.28-46.62,48.57-6.05,6.38-6.57,10.67-2.18,18.4,20.68,36.4,6.37,74.73-19.24,97.53a97.83,97.83,0,0,1-22,15c-20.91,10.12-42.31,10.57-64.16,1.82a97.41,97.41,0,0,1-44.27-35.1c-9.47-13.4-13.12-28.46-12-44.9,1-15,3.55-29.46,10.2-43,8.33-16.89,20.82-29.59,38.58-36.62,21.28-8.42,42.64-7.24,64-.42a103.83,103.83,0,0,1,14.84,5.87c3.05,1.52,4.87,1.44,7.3-1.09,15.59-16.2,31.35-32.25,47.05-48.35,5.93-6.08,11.88-12.14,17.78-18.25,1.12-1.17,2.06-2.5,3.82-4.66-8.6-1-16-1.58-23.32-2.77-17.39-2.83-33.3-9.42-46.41-21.28-11.69-10.58-21.52-22.73-24.74-38.84-1.82-9.06-3.53-18.15-5-27.26-.49-3-1.74-4.47-4.8-4.47-11.17,0-22.33.09-33.5,0-3.44,0-4.28,2-5.43,4.67-4.06,9.24-7.93,18.63-12.83,27.43-5.54,10-14,17.22-23.3,24-9.44,6.92-19.46,11.7-30.79,13.23-51.44,7-93.51-26.18-99.36-75.59a98.36,98.36,0,0,1-.7-11.65,84.14,84.14,0,0,1,14.84-48.2c5.57-8.22,13.06-14.43,21.16-20.46,12.24-9.12,25.69-14,40.24-16.21,16-2.42,31.22-.13,45.72,8.22,22.31,12.85,37.2,31.25,45,55.58,1.1,3.43,3,4.64,6.56,4.6,14.66-.14,29.34-.45,44,.13,6.22.25,9.1-4.18,10.91-7.59,7.35-13.9,17.62-24,32.74-28.49,4.2-1.25,6.43-2.92,7.12-7.43,1-6.24,2.68-12.36,4.13-18.52,2.89-12.27,8.26-23.48,14.54-34.33,1.92-3.31,3.41-6.86,5.32-10.18,2.36-4.08,1.73-7.11-1.8-10.47q-23.92-22.67-47.38-45.82c-2.77-2.72-5.35-3.48-8.9-2.08-5.11,2-10.39,3.61-15.46,5.71-29.6,12.26-56.55,6.23-81.23-12.4C314.39,312,303,296.6,300,276.58c-7.38-50,15.41-86.24,59.81-102.52,17.75-6.5,36.32-3.46,54,2.41,24.82,8.25,42.44,24.61,51.65,49.21,7,18.57,7.68,37.37-.25,56-2.53,6-4.59,12.13-7.08,18.12-1.53,3.66-.45,6.23,2.28,8.84,13.86,13.22,27.61,26.57,41.4,39.87.72.7,1.45,1.38,2.12,2.12,7.37,8.25,7.37,8.25,16.86,2,16.48-10.84,33.23-21.46,53.08-24.58,13.59-2.14,27.46-2.71,41.23-3.52,8.27-.49,8.3-.09,8.3-8.61,0-25.5-.12-51,.11-76.5.05-5-1.42-7.17-6.36-8.71-26.54-8.26-46-25.1-57.26-50.52-16.17-36.51-1.87-75,28.15-97,16-11.77,34.05-18.75,54.09-18.75h1.06c33.47.4,58.34,16.21,74.47,44.91,17,30.21,12.06,68.27-10.36,95.32-11.93,14.39-26.26,24.32-45,27.15-4.07.61-4.39,3.23-4.39,6.49,0,21.83,0,43.66,0,65.49,0,9,.07,18,.33,27,0,1.25,1.14,3.32,2.11,3.57,24.42,6.08,42.7,21.55,59.74,38.88,4.29,4.36,8.16,9.17,12,13.94,4.29,5.29,4.86,5.43,9.91.49q30.87-30.24,61.71-60.52c6.84-6.71,13.51-13.58,20.5-20.12,2.57-2.4,2.88-4.44,1.13-7.33-5.92-9.74-10.51-20-12.46-31.35-4.59-26.63,3.17-49.57,20.69-69.66,10.08-11.56,22.12-20.15,36.88-24.51,24.37-7.19,47.66-3.6,69.36,8.8,19.42,11.09,36,26,40.43,48.8,4.81,24.68,6.05,50-9.69,72.19-18.51,26.11-43.74,40.11-76.13,38.24-9.39-.54-18.6-4.65-27.84-7.3-4-1.14-7.77-3.13-11.8-3.89-2.23-.42-5.61.11-7.08,1.59-19.76,20-39.28,40.31-58.85,60.53-1,1.06-1.94,2.22-3.79,4.34,4,1.87,7.42,3.74,11,5,16.5,6,32.66,12.48,46.17,24.24,17.56,15.28,31.19,33.15,37.76,55.83.28,1,.53,1.93.77,2.9,2.4,9.79,2.4,9.8,12.85,9.81,7.16,0,14.34-.27,21.49.06,4.51.21,6.84-1.87,8.19-5.7,1.16-3.3,2.25-6.62,3.36-9.94,3.57-10.64,10-19.17,17.88-27.17,7.23-7.32,14.64-13.94,24-18.26C991.73,423.59,1014.78,424.26,1038.1,434.36ZM460.62,578.93c9.95,7.77,21.93,10.15,34.35,10.16q73.49.06,147,0v0c24,0,48,.09,72,0,28.65-.14,57.29-.51,85.94-.67,10.89-.06,20.33-4.21,28.92-10.29a51.33,51.33,0,0,0,10.48-10.39c12.61-16.21,16.16-34.87,12.93-54.72-1.55-9.53-3.58-19.36-7.65-28-3.87-8.21-10.15-15.5-16.31-22.35-13.75-15.27-30.74-26-51.16-29-17.7-2.59-35.73-3.11-53.65-4-4.66-.24-7.49-1.2-9.81-5.58-4.34-8.21-8.28-17.12-14.5-23.77-30-32.08-67.23-45.69-110.93-39.55a102.74,102.74,0,0,0-59.93,30c-21.49,21.64-31.15,48.3-33.47,78.13-.35,4.45.94,10.18-1.37,13s-8.16,2.61-12.47,3.7c-23.57,6-40.23,25-40.64,49.28C440,553,446.47,567.87,460.62,578.93Z" transform="translate(-191 -63)"/><path class="cls-1" d="M330.14,323.89c24.68,18.63,51.63,24.66,81.23,12.4,5.07-2.1,10.35-3.69,15.46-5.71,3.55-1.4,6.13-.64,8.9,2.08q23.5,23.1,47.38,45.82c3.53,3.36,4.16,6.39,1.8,10.47-1.91,3.32-3.4,6.87-5.32,10.18-6.28,10.85-11.65,22.06-14.54,34.33-1.45,6.16-3.17,12.28-4.13,18.52-.69,4.51-2.92,6.18-7.12,7.43-15.12,4.52-25.39,14.59-32.74,28.49-1.81,3.41-4.69,7.84-10.91,7.59-14.65-.58-29.33-.27-44-.13-3.56,0-5.46-1.17-6.56-4.6-7.8-24.33-22.69-42.73-45-55.58-14.5-8.35-29.74-10.64-45.72-8.22-14.55,2.2-28,7.09-40.24,16.21-8.1,6-15.59,12.24-21.16,20.46a84.14,84.14,0,0,0-14.84,48.2H191V63H642.14v1.46c-20,0-38.07,7-54.09,18.75-30,22-44.32,60.5-28.15,97,11.26,25.42,30.72,42.26,57.26,50.52,4.94,1.54,6.41,3.72,6.36,8.71-.23,25.5-.1,51-.11,76.5,0,8.52,0,8.12-8.3,8.61-13.77.81-27.64,1.38-41.23,3.52-19.85,3.12-36.6,13.74-53.08,24.58-9.49,6.25-9.49,6.25-16.86-2-.67-.74-1.4-1.42-2.12-2.12-13.79-13.3-27.54-26.65-41.4-39.87-2.73-2.61-3.81-5.18-2.28-8.84,2.49-6,4.55-12.15,7.08-18.12,7.93-18.66,7.21-37.46.25-56-9.21-24.6-26.83-41-51.65-49.21-17.67-5.87-36.24-8.91-54-2.41-44.4,16.28-67.19,52.5-59.81,102.52C303,296.6,314.39,312,330.14,323.89Z" transform="translate(-191 -63)"/><path class="cls-1" d="M383.12,204.8c28.93.66,52.14,24.89,52.32,52.58.16,29.79-27,49.52-52.2,50.26-28.94.86-49.5-20.62-49.61-50.42C333.53,229,356.72,204.19,383.12,204.8Z" transform="translate(-191 -63)"/><path class="cls-1" d="M387.33,720.68c24.77-.36,47.22,24.32,47.08,51.41-.13,27.34-18.18,47.8-46.49,47.36-32.75.1-54.59-22.63-54.74-50.91C333,739,354.06,721.17,387.33,720.68Z" transform="translate(-191 -63)"/><path class="cls-1" d="M325.83,505.65c.27,13.75-2,27.23-9,39.44-8.48,14.71-22.16,19.75-35.34,20.29-35.42.12-59.83-30.71-53.62-63.45,2.82-14.88,11-26.25,23.58-32.93,14-7.42,29.59-8.37,45-3,7.52,2.62,13.73,7,19.63,12.37C324.38,485.89,325.63,495.76,325.83,505.65Z" transform="translate(-191 -63)"/></svg>