<svg id="Layer_1" data-name="Layer 1" xmlns="http://www.w3.org/2000/svg" viewBox="0 0 892.54 752.84"><defs><style>.cls-1{fill:#f1592b;}</style></defs><title>icon-platform-orange</title><path class="cls-1" d="M665.94,140.33q42,15.57,84,30.86Q776.9,181,803.83,190.8q37.35,13.6,74.7,27.22,25.58,9.31,51.15,18.59,38.19,13.9,76.37,27.86,26.91,9.81,53.83,19.61,14.47,5.25,29,10.43v2.87q-24.52,11.33-49.06,22.65-33.46,15.5-66.9,31.06-26.31,12.18-52.66,24.27-28.46,13.11-56.89,26.25L810,426.19,753.46,452.3Q726.66,464.66,699.82,477q-30.59,14-61.21,27.95a5.71,5.71,0,0,1-4,0c-14.76-5.84-29.46-11.83-44.19-17.75q-37.54-15.09-75.11-30.13L462.14,435.8,387,405.67l-53.51-21.43-74.77-30q-27.09-10.86-54.19-21.69c-2.39-1-4.82-1.82-8-3,7.94-3.32,15-6.35,22.17-9.27,7.39-3,14.86-5.88,22.26-8.92,16.34-6.72,32.64-13.54,49-20.26q37.75-15.52,75.53-31,26.34-10.8,52.69-21.56,37.44-15.33,74.88-30.7l54.35-22.25,73.88-30.27c12-4.93,24.09-9.82,36.1-14.82A10.77,10.77,0,0,1,665.94,140.33Z" transform="translate(-196.31 -139.54)"/><path class="cls-1" d="M375.17,459.45c13.12,5.13,26.17,10.44,39.24,15.69q39.38,15.83,78.75,31.64,26.93,10.8,53.85,21.56,37.23,14.92,74.45,29.86c4,1.6,8.2,2.77,11.94,4.81s6.92,1.45,10.4-.18q23.67-11.1,47.4-22.1Q720.6,527.1,750,513.52c10.51-4.86,21-9.64,31.56-14.49q30.06-13.89,60.1-27.83,27-12.46,54-24.89c6.29-2.9,12.51-6,18.89-8.62a9.55,9.55,0,0,1,6.08-.36c22,7.08,44,14.38,66,21.59q37.1,12.15,74.22,24.27,12.77,4.15,25.57,8.2a14.93,14.93,0,0,0,2.41.38v3.58c-3.18,1.32-6.42,2.52-9.55,4-16.89,7.84-33.74,15.77-50.64,23.6q-27.6,12.81-55.25,25.51L918.8,573.62Q891.32,586.28,863.86,599l-54.94,25.34L754.31,649.5,698.4,675.31Q671.57,687.69,644.73,700a53.24,53.24,0,0,1-6.59,2.74,6,6,0,0,1-3.66-.2c-15.08-6-30.12-12.14-45.19-18.2q-36.87-14.83-73.77-29.62L461,632.91,387.23,603.3l-54.18-21.73-55.5-22.27Q250,548.24,222.37,537.19c-8.28-3.31-16.58-6.55-26-10.24,3.36-1.23,5.77-2.05,8.13-3q34.35-13.46,68.69-27,36.69-14.32,73.44-28.54c7.91-3.06,15.82-6.11,23.79-9A7.31,7.31,0,0,1,375.17,459.45Z" transform="translate(-196.31 -139.54)"/><path class="cls-1" d="M365,653c18,7.08,35.92,14.31,53.86,21.51L493,704.24l54.51,21.87,73.79,29.6c4,1.6,8.17,2.81,11.93,4.81s7.1,1.54,10.77-.2c15.32-7.24,30.7-14.35,46.08-21.49Q720,725,749.88,711.15q26.8-12.4,53.63-24.76l56.22-26q26.49-12.23,53-24.42c4.34-2,8.65-4,13.07-5.85a6.39,6.39,0,0,1,4.05-.18q28.29,9.12,56.53,18.43l93.95,30.75c2.83.92,5.68,1.81,8.52,2.71v2.87l-40.32,18.6-56.88,26.26L938,754.31q-28.12,13-56.24,26c-15.5,7.13-31,14.18-46.53,21.34q-31.86,14.7-63.67,29.51-26.81,12.39-53.65,24.73-28.11,13-56.23,26c-7.48,3.43-15,6.83-22.54,10.05a6.7,6.7,0,0,1-4.64.2c-14.88-5.86-29.68-11.92-44.53-17.88q-37.22-15-74.45-29.88l-54.18-21.73-74.12-29.71L333,771.11l-74.13-29.73q-27.08-10.86-54.18-21.7c-2.42-1-4.89-1.84-8.42-3.16,3.38-1.24,5.8-2.07,8.17-3q25-9.82,50-19.66,36.87-14.4,73.76-28.72c10.57-4.11,21.12-8.26,31.75-12.21A7.68,7.68,0,0,1,365,653Z" transform="translate(-196.31 -139.54)"/></svg>