<svg id="Layer_1" data-name="Layer 1" xmlns="http://www.w3.org/2000/svg" xmlns:xlink="http://www.w3.org/1999/xlink" viewBox="0 0 944.24 989.66"><defs><style>.cls-1{fill:#fff;}.cls-2{fill:url(#linear-gradient);}.cls-3{fill:url(#linear-gradient-2);}.cls-4{fill:url(#linear-gradient-3);}</style><linearGradient id="linear-gradient" x1="172.16" y1="797.78" x2="1112.12" y2="797.78" gradientUnits="userSpaceOnUse"><stop offset="0" stop-color="#8bc249"/><stop offset="1" stop-color="#f7ec13"/></linearGradient><linearGradient id="linear-gradient-2" x1="172.12" y1="577.91" x2="1112.12" y2="577.91" xlink:href="#linear-gradient"/><linearGradient id="linear-gradient-3" x1="171.97" y1="293.45" x2="1112.12" y2="293.45" xlink:href="#linear-gradient"/></defs><title>icon-platform</title><path class="cls-1" d="M1112.12,709.93v296.9H167.88V17.17h944.24V261.29q-222.63-88.47-445.22-177a11.74,11.74,0,0,0-10,.28Q416.77,192,176.56,299.29c-1.29.57-2.56,1.19-4.59,2.14,2,.93,3.25,1.55,4.54,2.12q227.73,99.57,455.42,199.21a8.14,8.14,0,0,0,7.71-.24Q827,408.16,1014.33,313.92q48.92-24.62,97.79-49.33V488.08a34,34,0,0,1-4.14-.94q-85.8-30.56-171.58-61.22a10.65,10.65,0,0,0-9.26.59q-142.6,72-285.26,143.81a8.83,8.83,0,0,1-8.42.19q-136-59.62-272.13-119.12a8.54,8.54,0,0,0-7.45-.21Q265,489,176.05,526.71c-1.13.48-2.22,1.06-3.93,1.88,2.09,1,3.38,1.62,4.71,2.2Q404,630.17,631.1,729.61a9.61,9.61,0,0,0,9.16-.17Q874,611.65,1107.78,494.06c1.41-.71,2.89-1.24,4.34-1.85V706.63q-82.62-29.49-165.23-59.07a10.29,10.29,0,0,0-8.91.62Q789.87,722.9,641.73,797.54a8.49,8.49,0,0,1-8.08.19q-141.46-62-283-123.92c-2.37-1-4.43-1.52-7.07-.4Q259.82,709.14,176,744.65c-1.11.48-2.16,1.09-3.8,1.91,2,.93,3.33,1.56,4.65,2.14q227.54,99.54,455,199.13a8.13,8.13,0,0,0,7.72-.14q164.61-83,329.31-165.77Q1040.48,745.89,1112.12,709.93Z" transform="translate(-167.88 -17.17)"/><path class="cls-2" d="M1112.12,706.63v3.3q-71.62,36-143.25,72Q804.19,864.75,639.56,947.69a8.13,8.13,0,0,1-7.72.14q-227.49-99.63-455-199.13c-1.32-.58-2.62-1.21-4.65-2.14,1.64-.82,2.69-1.43,3.8-1.91q83.82-35.6,167.62-71.24c2.64-1.12,4.7-.64,7.07.4q141.51,62,283,123.92a8.49,8.49,0,0,0,8.08-.19Q789.83,722.8,938,648.18a10.29,10.29,0,0,1,8.91-.62Q1029.47,677.22,1112.12,706.63Z" transform="translate(-167.88 -17.17)"/><path class="cls-3" d="M1112.12,488.08v4.13c-1.45.61-2.93,1.14-4.34,1.85Q874,611.71,640.26,729.44a9.61,9.61,0,0,1-9.16.17Q404,630.12,176.83,530.79c-1.33-.58-2.62-1.22-4.71-2.2,1.71-.82,2.8-1.4,3.93-1.88Q265,489,353.88,451.18a8.54,8.54,0,0,1,7.45.21Q497.38,511,633.46,570.51a8.83,8.83,0,0,0,8.42-.19q142.61-72,285.26-143.81a10.65,10.65,0,0,1,9.26-.59q85.76,30.74,171.58,61.22A34,34,0,0,0,1112.12,488.08Z" transform="translate(-167.88 -17.17)"/><path class="cls-4" d="M1112.12,261.29v3.3q-48.88,24.66-97.79,49.33Q827,408.21,639.64,502.52a8.14,8.14,0,0,1-7.71.24Q404.25,403.09,176.51,303.55c-1.29-.57-2.55-1.19-4.54-2.12,2-.95,3.3-1.57,4.59-2.14Q416.74,192,656.89,84.55a11.74,11.74,0,0,1,10-.28Q889.47,172.88,1112.12,261.29Z" transform="translate(-167.88 -17.17)"/></svg>