<svg id="Layer_1" data-name="Layer 1" xmlns="http://www.w3.org/2000/svg" viewBox="0 0 511.83 511.92"><defs><style>.cls-1{fill:#ff5722;}.cls-2{fill:#fff;}</style></defs><title>icon-robot-orange</title><path class="cls-1" d="M833.47,709.07c29,.11,53.79,24.38,55.32,53.41a27.86,27.86,0,0,1-.19,3.1H596.91a44.12,44.12,0,0,1,4.64-22.94c10.3-21.2,27.32-33.3,50.94-33.49C712.81,708.67,773.14,708.84,833.47,709.07Z" transform="translate(-385.02 -257.08)"/><path class="cls-1" d="M663.09,598.74c14.71,30.3,40,43.16,72.3,41.71,31.83-1.44,57.34-14.57,71.83-46.61V696.72h-131Q669.62,647.57,663.09,598.74Z" transform="translate(-385.02 -257.08)"/><path class="cls-2" d="M416.72,450.91c39.58.18,47.86,7.63,54.9,49.2,1.55-1.71,2.7-2.91,3.78-4.16Q535.72,426.52,596,357.08c15.55-17.93,16.2-41.33,1.35-59.86-11.64-14.54-26.31-22.78-45.48-17.83-17,4.41-29.15,15.44-37.9,30.46-5.69,9.78-11,19.86-17.46,29.08-25.3,35.95-51,71.61-76.58,107.38C418.94,447.7,418,449.11,416.72,450.91Zm-11.27,97.95c1.73,7.62,6.34,10.28,14.06,8.79,6.85-1.32,13.75-2.46,20.58-3.91,7.76-1.66,15.47-3.57,23.19-5.38,3.17-.74,3.91-2.7,3.63-5.87-1.64-18.74-3-37.51-4.63-56.25C460.91,470.85,446.64,458,429.43,458a49.21,49.21,0,0,0-25.61,9.39,23.29,23.29,0,0,0-9.76,18.82,56.92,56.92,0,0,0,.68,12.93C398.09,515.75,401.71,532.32,405.45,548.86Zm271.4,48.2c12.76,19,29.82,32,53.3,33.86,32.85,2.54,57.08-14.83,67-46.53,5.08-16.32,3.57-31.53-6-45.79-3.14-4.7-6.17-9.56-9.89-13.78-13.11-14.86-27.19-28.92-39.65-44.29-38.69-47.75-76.8-96-115.13-144-2.64-3.31-5.2-6.68-8.13-10.46-.33,1.3-.48,1.78-.56,2.26-.24,1.48-.47,3-.67,4.45-2.2,15.93-8.11,29.83-19.8,41.49-13.91,13.87-26.92,28.63-40.59,43.3,15.36,22.86,30.35,45.07,45.24,67.34C627,522.28,651.78,559.75,676.85,597.06Zm220-340V769H385V257.08Zm-8.25,508.5a27.86,27.86,0,0,0,.19-3.1c-1.53-29-26.3-53.3-55.32-53.41-60.33-.23-120.66-.4-181,.08-23.62.19-40.64,12.29-50.94,33.49a44.12,44.12,0,0,0-4.64,22.94Zm-81.38-68.86V593.84c-14.49,32-40,45.17-71.83,46.61-32.34,1.45-57.59-11.41-72.3-41.71q6.54,48.9,13.1,98ZM460,624.66c.07-1.57.21-2.71.17-3.85-.66-20.44-1.34-40.88-2-62L424,565c7.45,21,14.66,41.33,21.95,61.9Z" transform="translate(-385.02 -257.08)"/><path class="cls-1" d="M735,600.22a31.67,31.67,0,1,1,31.48-31.92A31.54,31.54,0,0,1,735,600.22Z" transform="translate(-385.02 -257.08)"/><path class="cls-2" d="M735,600.22a31.67,31.67,0,1,0-32-31.41A31.53,31.53,0,0,0,735,600.22Zm-.17-76.57a44.79,44.79,0,1,1-44.87,44.6A44.81,44.81,0,0,1,734.78,523.65Z" transform="translate(-385.02 -257.08)"/><path class="cls-1" d="M791.15,538.6c9.52,14.26,11,29.47,6,45.79-9.87,31.7-34.1,49.07-67,46.53-23.48-1.82-40.54-14.86-53.3-33.86C651.78,559.75,627,522.28,602,484.91c-14.89-22.27-29.88-44.48-45.24-67.34,13.67-14.67,26.68-29.43,40.59-43.3,11.69-11.66,17.6-25.56,19.8-41.49.2-1.49.43-3,.67-4.45.08-.48.23-1,.56-2.26,2.93,3.78,5.49,7.15,8.13,10.46,38.33,48,76.44,96.25,115.13,144,12.46,15.37,26.54,29.43,39.65,44.29C785,529,788,533.9,791.15,538.6Zm-56.27,74.62a44.79,44.79,0,1,0-45-45A44.79,44.79,0,0,0,734.88,613.22Z" transform="translate(-385.02 -257.08)"/><path class="cls-2" d="M560.84,346.07A19.32,19.32,0,0,0,580,326.55a19.52,19.52,0,0,0-19.42-19.42A19.73,19.73,0,0,0,541.09,327,19.49,19.49,0,0,0,560.84,346.07Zm0-46.93a27.48,27.48,0,1,1-27.79,27A27.45,27.45,0,0,1,560.88,299.14Z" transform="translate(-385.02 -257.08)"/><path class="cls-1" d="M560.62,307.13A19.52,19.52,0,0,1,580,326.55a19.48,19.48,0,0,1-38.95.47A19.73,19.73,0,0,1,560.62,307.13Z" transform="translate(-385.02 -257.08)"/><path class="cls-1" d="M560.34,354.1a27.48,27.48,0,0,0,.54-55,27.48,27.48,0,1,0-.54,55Zm-88.72,146c-7-41.57-15.32-49-54.9-49.2,1.26-1.8,2.22-3.21,3.22-4.6,25.56-35.77,51.28-71.43,76.58-107.38,6.5-9.22,11.77-19.3,17.46-29.08,8.75-15,20.88-26.05,37.9-30.46,19.17-4.95,33.84,3.29,45.48,17.83,14.85,18.53,14.2,41.93-1.35,59.86Q535.76,426.54,475.4,496C474.32,497.2,473.17,498.4,471.62,500.11Z" transform="translate(-385.02 -257.08)"/><path class="cls-1" d="M405.64,493.47a22.71,22.71,0,1,0,22.57-23A22.6,22.6,0,0,0,405.64,493.47Zm13.87,64.18c-7.72,1.49-12.33-1.17-14.06-8.79-3.74-16.54-7.36-33.11-10.71-49.73a56.92,56.92,0,0,1-.68-12.93,23.29,23.29,0,0,1,9.76-18.82A49.21,49.21,0,0,1,429.43,458c17.21,0,31.48,12.86,32.85,28.25,1.67,18.74,3,37.51,4.63,56.25.28,3.17-.46,5.13-3.63,5.87-7.72,1.81-15.43,3.72-23.19,5.38C433.26,555.19,426.36,556.33,419.51,557.65Z" transform="translate(-385.02 -257.08)"/><path class="cls-1" d="M460.14,620.81c0,1.14-.1,2.28-.17,3.85l-14,2.23C438.65,606.32,431.44,586,424,565l34.11-6.15C458.8,579.93,459.48,600.37,460.14,620.81Z" transform="translate(-385.02 -257.08)"/><path class="cls-1" d="M428.15,509.07a16.08,16.08,0,0,1-15.93-16.42A16.3,16.3,0,0,1,428.5,477a16,16,0,0,1,15.79,16.49A15.78,15.78,0,0,1,428.15,509.07Z" transform="translate(-385.02 -257.08)"/><path class="cls-2" d="M428.15,509.07a15.78,15.78,0,0,0,16.14-15.55A16,16,0,0,0,428.5,477a16.3,16.3,0,0,0-16.28,15.62A16.08,16.08,0,0,0,428.15,509.07Zm.06-38.64a22.78,22.78,0,1,1-22.57,23A22.65,22.65,0,0,1,428.21,470.43Z" transform="translate(-385.02 -257.08)"/></svg>