<svg id="Layer_1" data-name="Layer 1" xmlns="http://www.w3.org/2000/svg" xmlns:xlink="http://www.w3.org/1999/xlink" viewBox="0 0 600 451.31"><defs><style>.cls-1{fill:url(#linear-gradient);}.cls-2{fill:url(#linear-gradient-2);}</style><linearGradient id="linear-gradient" x1="341" y1="590.72" x2="941" y2="590.72" gradientUnits="userSpaceOnUse"><stop offset="0" stop-color="#8bc34a"/><stop offset="1" stop-color="#ff0"/></linearGradient><linearGradient id="linear-gradient-2" x1="405.89" y1="414.78" x2="883.62" y2="414.78" xlink:href="#linear-gradient"/></defs><title>icon-health</title><path class="cls-1" d="M702.55,444c4.92,16.16,9.52,31.25,14.1,46.34q5.05,16.69,10.07,33.42c3.08,10.25,7.3,13.46,18,13.46q73,0,146,0c9.49,0,19,.49,28.48-.13,11-.73,18.33,3.32,21.76,13.94v6a63.53,63.53,0,0,1-3.64,6.39c-3.37,4.65-8,6.55-13.81,6.53-32-.1-64,0-96-.07-2.92,0-5.24.22-7.18,3.14-34.9,52.82-79.21,96.79-128.5,136-11.07,8.81-22.78,16.82-33.77,25.74-4.69,3.81-8.25,3.43-12.7.2-25.08-18.16-50.88-35.39-75.22-54.48-39-30.59-73.28-65.93-100.58-107.61-1.79-2.74-3.94-3-6.71-3-33,0-66-.31-99,.23-10.87.17-18.85-2.46-22.95-13.07v-7c.77-1.42,1.51-2.86,2.32-4.26,3.05-5.29,7.48-8.51,13.72-8.52q81.24-.06,162.48.11c1.82,0,4.26,1.64,5.34,3.24,9.49,14.09,18.69,28.37,28.09,42.52,5.11,7.7,12.34,10.58,19.58,8,5.79-2.1,9.12-6.4,10.66-12.27q7.42-28.21,14.93-56.4c.34-1.27.74-2.53,1.42-4.83,3.49,15.69,6.78,30.35,10,45q5.21,23.61,10.3,47.26c2.14,9.9,7.8,15.59,15.91,15.83,8.27.25,14.41-4.84,17.25-14.46q23.61-79.86,47.17-159.73C700.82,449.3,701.54,447.16,702.55,444Z" transform="translate(-341 -286.18)"/><path class="cls-2" d="M560.44,535.57c-4.38-6.78-8.32-13-12.42-19.14-2-3-3.82-6.69-6.7-8.56-3.69-2.41-8.35-4.6-12.63-4.65-30.48-.39-61-.29-91.47-.11-4.1,0-6.2-1.26-7.83-5-13.56-31.07-23.12-63.22-23.49-97.31-.27-25.13,5.06-49.32,18.5-71,14.31-23.12,35.9-35,62.34-38.53,33.51-4.42,65.71,2.35,97,13.54,19,6.83,37.43,15.54,56,23.7,3,1.29,5,1.35,7.74-.17,30.8-16.82,63-30.22,97.39-37.57,24.86-5.31,49.79-7.15,74.48.85,28.58,9.26,45.65,29.85,55.54,57.31,9.73,27,11,54.54,5.76,82.62A380.38,380.38,0,0,1,859,505.62c-1,2.4-1.68,4.27-5,4.26-32.16-.15-64.32-.1-96.48-.12a20.59,20.59,0,0,1-2.06-.28q-11.64-39.39-23.2-78.53-6.69-22.71-13.34-45.44a38.14,38.14,0,0,0-2-5.63c-3.24-6.77-9.26-10.61-15.74-10.21s-12.11,5-14.31,12.17c-3.81,12.39-7.38,24.85-11,37.28q-17.56,59.55-35.12,119.08c-.37,1.26-.87,2.48-1.82,5.18-2-8.94-3.83-16.55-5.51-24.18q-8.1-36.77-16.13-73.53c-2-8.93-8.27-14.46-16.57-14.56-7.55-.09-13.6,5.13-15.95,13.94q-11.49,43.13-22.9,86.25C561.49,532.42,561.09,533.52,560.44,535.57Z" transform="translate(-341 -286.18)"/></svg>