<svg id="Layer_1" data-name="Layer 1" xmlns="http://www.w3.org/2000/svg" xmlns:xlink="http://www.w3.org/1999/xlink" viewBox="0 0 484.09 408.77"><defs><style>.cls-1{fill:url(#linear-gradient);}.cls-2{fill:url(#linear-gradient-2);}.cls-3{fill:url(#linear-gradient-3);}.cls-4{fill:url(#linear-gradient-4);}.cls-5{fill:url(#linear-gradient-5);}</style><linearGradient id="linear-gradient" x1="399.4" y1="455.74" x2="883.49" y2="455.74" gradientUnits="userSpaceOnUse"><stop offset="0" stop-color="#8bc34a"/><stop offset="1" stop-color="#ff0"/></linearGradient><linearGradient id="linear-gradient-2" x1="756.97" y1="579.48" x2="834.41" y2="579.48" xlink:href="#linear-gradient"/><linearGradient id="linear-gradient-3" x1="648.24" y1="630.74" x2="726.28" y2="630.74" xlink:href="#linear-gradient"/><linearGradient id="linear-gradient-4" x1="540.92" y1="644.79" x2="618.22" y2="644.79" xlink:href="#linear-gradient"/><linearGradient id="linear-gradient-5" x1="432.18" y1="645.24" x2="509.84" y2="645.24" xlink:href="#linear-gradient"/></defs><title>icon-ambition2</title><path class="cls-1" d="M864,309.36c14.19-.69,20.28,6,19.4,20.35-1.42,23.11-2.34,46.25-3.5,69.38-.25,5-.36,10-1,15-.91,6.72-5.14,11.24-11.29,13.47-5.94,2.15-11-.09-15.33-4.54-7.39-7.65-14.87-15.2-23.57-24.06-1.43,2.24-2.19,4-3.46,5.32q-92.93,93-185.92,186c-9.9,9.9-21.11,12-31.62,5.68a39.37,39.37,0,0,1-7.28-6q-35.05-34.93-70-70c-1.38-1.4-2.25-3.32-3.83-5.72-6.77,6.94-12,12.36-17.24,17.66-20.13,20.17-40.62,40-60.31,60.58-11.32,11.83-28,14.28-40.78-.29-7.19-8.18-11.44-16.5-7.12-27.11a32.65,32.65,0,0,1,6.92-10.22q49-49.59,98.34-98.92c11.86-11.88,25.86-11.86,37.84,0q35.81,35.61,71.4,71.41a38.76,38.76,0,0,1,3.25,4.43L792.34,361.9c-8.2-7.85-16.14-15.39-24-23-4.69-4.54-5.84-9.95-3.31-16,2.25-5.37,6.34-8.59,12.16-9,9-.69,18-1.14,26.94-1.59C824.07,311.27,844,310.34,864,309.36Z" transform="translate(-399.4 -309.31)"/><path class="cls-2" d="M834.32,705.69c0,10-2.41,12.39-12.33,12.38q-27.25,0-54.5,0c-7.4,0-10.5-2.91-10.51-10.09q0-96,.08-192a8.19,8.19,0,0,1,1.89-5.27c22.78-23.39,45.69-46.67,68.4-69.8,5.9,2.79,7.06,6.1,7.06,10.82Q834.2,578.7,834.32,705.69Z" transform="translate(-399.4 -309.31)"/><path class="cls-3" d="M726.28,543.43c0,17.92,0,34.39,0,50.86q0,56,0,111.94c0,9.38-2.44,11.81-11.81,11.81q-27.73,0-55.47,0c-7.62,0-10.68-3-10.69-10.54q-.06-42,.06-84a8,8,0,0,1,1.89-5.19c6-6,12.39-11.6,18.41-17.57q26.43-26.24,52.68-52.63C722.58,546.88,723.9,545.68,726.28,543.43Z" transform="translate(-399.4 -309.31)"/><path class="cls-4" d="M618.19,632.24q0,37.69,0,75.41c0,7.44-2.91,10.36-10.2,10.38q-28.71.08-57.43,0c-6.42,0-9.6-3.09-9.6-9.44q-.08-66.68,0-133.35c0-.78.13-1.57.34-3.72,10.38,10.46,20.07,19.84,29.32,29.63,13,13.77,26.53,26.49,47.23,26.47C618,629.63,618.19,630.93,618.19,632.24Z" transform="translate(-399.4 -309.31)"/><path class="cls-5" d="M509.83,572.41c0,46.28,0,91.39,0,136.49,0,5.65-3.47,9.09-9,9.11q-29.72.13-59.43,0c-5.32,0-9-3.41-9.06-8.6-.13-25.79-.06-51.57-.06-77.74,1.95-.33,3.69-.61,5.42-.94A54.74,54.74,0,0,0,467,615c12.76-12.9,25.64-25.68,38.48-38.51C506.65,575.32,507.86,574.25,509.83,572.41Z" transform="translate(-399.4 -309.31)"/></svg>