<svg id="Layer_1" data-name="Layer 1" xmlns="http://www.w3.org/2000/svg" viewBox="0 0 390 390"><defs><style>.cls-1{fill:#fff;}.cls-2{fill:#d4e157;}</style></defs><title>icons_language</title><path class="cls-1" d="M836,527V708H653c8.53-1.27,17.13-2.21,25.59-3.86A195,195,0,0,0,835.14,530.85,30.5,30.5,0,0,1,836,527Z" transform="translate(-446 -318)"/><path class="cls-1" d="M836,318V499c-1.57-9.49-2.74-19.07-4.79-28.46C814.55,394,751.52,334.06,674.15,320.94c-6.69-1.13-13.43-2-20.15-2.94Z" transform="translate(-446 -318)"/><path class="cls-2" d="M831.21,470.54c2,9.39,3.22,19,4.79,28.46v28a30.5,30.5,0,0,0-.86,3.85A195,195,0,0,1,678.59,704.14c-8.46,1.65-17.06,2.59-25.59,3.86H629a41.49,41.49,0,0,0-4.37-.83c-84.12-6.6-156-69.26-173.86-151.71-2-9.39-3.2-19-4.77-28.46V499c1-6.72,1.92-13.46,3-20.17,12.62-75.59,73.6-139.64,148.55-155.8,10-2.16,20.27-3.38,30.41-5h26c6.72,1,13.46,1.81,20.15,2.94C751.52,334.06,814.55,394,831.21,470.54ZM550,528.41c1.41,25.43,5.49,49.73,13.44,73.3l65.18-3.81V528.41ZM743.52,421c8.45,27.29,12.14,54.74,13.24,82.69h54.53c-2-32.5-12-61.51-30.22-87.68-.65-.94-2.81-1.42-4.12-1.2-8.7,1.43-17.37,3.1-26,4.71C748.55,419.93,746.2,420.44,743.52,421ZM471.09,528.55a168.21,168.21,0,0,0,29.53,81c.74,1.07,3,1.77,4.41,1.58,4.77-.64,9.47-1.81,14.22-2.68,6.29-1.15,12.6-2.2,17.52-3.06-4.31-25.91-8.51-51.11-12.79-76.87Zm102.3,96.75c9.26,26.1,38.57,55.4,55.21,55.86v-58.7Zm203.07-14c2.87.6,4.14-.29,5.61-2.47a164.65,164.65,0,0,0,23.71-52c2.35-9.24,3.76-18.72,5.64-28.31H758c-4.29,25.79-8.48,51-12.78,76.8C755,607.16,765.76,609,776.46,611.29ZM733.58,394.37c.65,1.17,2.43,2.63,3.49,2.49,8-1,15.9-2.44,25-3.92-14.86-14.68-30.53-25.82-47.82-33.85C720.69,370.85,727.05,382.66,733.58,394.37ZM519.86,633c14.85,14.67,30.5,25.76,47.78,33.89-6.51-12-13-24.15-19.66-36.14a4.31,4.31,0,0,0-3.53-1.63C536.71,630.2,529,631.54,519.86,633Zm195.93-31.24c1.22.06,3.36-1.89,3.7-3.25,3.29-13,6.72-26.09,9.21-39.31,1.88-10,2.45-20.31,3.63-30.65h-79v69.1c.56.26.84.51,1.14.52C674.93,599.45,695.35,600.76,715.79,601.78Zm-2.26,65.07c13.26-4.53,40.33-23.66,47.73-33.94-8.27-1.35-16.19-2.75-24.17-3.79-1.07-.14-2.86,1.31-3.5,2.47-2.47,4.51-4.38,9.33-7,13.78C722.5,652.57,718,659.57,713.53,666.85Zm18.23-163.28a10.23,10.23,0,0,0,.34-1.76,277.9,277.9,0,0,0-12.65-75c-.91-2.9-2.55-2.82-4.86-2.67q-27.89,1.75-55.78,3.39l-5.5.37v75.7ZM653.32,682.24c28.11-9.6,42.71-31.59,56-56.88l-56-2.92Zm55.95-281.62c-13.18-25.31-27.85-47.23-55.85-56.86v59.77Zm-80.59,2.87V344.56c-19,2.72-49.84,34-54.83,56.17Zm0,100.11V428.07l-65.27-3.79a275.57,275.57,0,0,0-13.54,79.32ZM548.5,394.2c6.46-11.61,12.76-23.32,19.21-35.18A171.41,171.41,0,0,0,519.9,393c9.2,1.48,17.18,2.89,25.2,3.91C546.13,397,547.84,395.41,548.5,394.2ZM525.32,503.64a319.84,319.84,0,0,1,13-82.71c-11.16-2.09-21.66-3.85-32.05-6.12-3.44-.76-5,.28-6.81,2.95-10.44,15.65-18.52,32.42-23,50.67-2.83,11.38-4.45,23.06-6.72,35.21Z" transform="translate(-446 -318)"/><path class="cls-1" d="M782.07,608.82c-1.47,2.18-2.74,3.07-5.61,2.47-10.7-2.26-21.49-4.13-31.24-5.95,4.3-25.82,8.49-51,12.78-76.8h53.42c-1.88,9.59-3.29,19.07-5.64,28.31A164.65,164.65,0,0,1,782.07,608.82Z" transform="translate(-446 -318)"/><path class="cls-1" d="M777,414.79c1.31-.22,3.47.26,4.12,1.2,18.2,26.17,28.24,55.18,30.22,87.68H756.76c-1.1-27.95-4.79-55.4-13.24-82.69,2.68-.54,5-1.05,7.39-1.48C759.58,417.89,768.25,416.22,777,414.79Z" transform="translate(-446 -318)"/><path class="cls-1" d="M761.26,632.91c-7.4,10.28-34.47,29.41-47.73,33.94,4.47-7.28,9-14.28,13.11-21.48,2.57-4.45,4.48-9.27,7-13.78.64-1.16,2.43-2.61,3.5-2.47C745.07,630.16,753,631.56,761.26,632.91Z" transform="translate(-446 -318)"/><path class="cls-1" d="M737.07,396.86c-1.06.14-2.84-1.32-3.49-2.49-6.53-11.71-12.89-23.52-19.29-35.28,17.29,8,33,19.17,47.82,33.85C753,394.42,745.05,395.83,737.07,396.86Z" transform="translate(-446 -318)"/><path class="cls-1" d="M653.36,528.57h79c-1.18,10.34-1.75,20.62-3.63,30.65-2.49,13.22-5.92,26.26-9.21,39.31-.34,1.36-2.48,3.31-3.7,3.25-20.44-1-40.86-2.33-61.29-3.59-.3,0-.58-.26-1.14-.52Z" transform="translate(-446 -318)"/><path class="cls-1" d="M714.59,424.11c2.31-.15,3.95-.23,4.86,2.67a277.9,277.9,0,0,1,12.65,75,10.23,10.23,0,0,1-.34,1.76H653.31v-75.7l5.5-.37Q686.7,425.82,714.59,424.11Z" transform="translate(-446 -318)"/><path class="cls-1" d="M653.32,622.44l56,2.92c-13.28,25.29-27.88,47.28-56,56.88Z" transform="translate(-446 -318)"/><path class="cls-1" d="M653.42,343.76c28,9.63,42.67,31.55,55.85,56.86l-55.85,2.91Z" transform="translate(-446 -318)"/><path class="cls-1" d="M573.85,400.73c5-22.14,35.78-53.45,54.83-56.17v58.93Z" transform="translate(-446 -318)"/><path class="cls-1" d="M628.64,428.07V503.6H549.83a275.57,275.57,0,0,1,13.54-79.32Z" transform="translate(-446 -318)"/><path class="cls-1" d="M628.61,528.41V597.9l-65.18,3.81c-7.95-23.57-12-47.87-13.44-73.3Z" transform="translate(-446 -318)"/><path class="cls-1" d="M628.6,622.46v58.7c-16.64-.46-46-29.76-55.21-55.86Z" transform="translate(-446 -318)"/><path class="cls-1" d="M624.63,707.17A41.49,41.49,0,0,1,629,708H446V527c1.57,9.49,2.74,19.07,4.77,28.46C468.6,637.91,540.51,700.57,624.63,707.17Z" transform="translate(-446 -318)"/><path class="cls-1" d="M446,318H628c-10.14,1.65-20.38,2.87-30.41,5-75,16.16-135.93,80.21-148.55,155.8-1.12,6.71-2,13.45-3,20.17Z" transform="translate(-446 -318)"/><path class="cls-1" d="M544.45,629.14a4.31,4.31,0,0,1,3.53,1.63c6.66,12,13.15,24.09,19.66,36.14-17.28-8.13-32.93-19.22-47.78-33.89C529,631.54,536.71,630.2,544.45,629.14Z" transform="translate(-446 -318)"/><path class="cls-1" d="M548.5,394.2c-.66,1.21-2.37,2.81-3.4,2.67-8-1-16-2.43-25.2-3.91A171.41,171.41,0,0,1,567.71,359C561.26,370.88,555,382.59,548.5,394.2Z" transform="translate(-446 -318)"/><path class="cls-1" d="M505,611.16c-1.41.19-3.67-.51-4.41-1.58a168.21,168.21,0,0,1-29.53-81H524c4.28,25.76,8.48,51,12.79,76.87-4.92.86-11.23,1.91-17.52,3.06C514.5,609.35,509.8,610.52,505,611.16Z" transform="translate(-446 -318)"/><path class="cls-1" d="M506.3,414.81c10.39,2.27,20.89,4,32.05,6.12a319.84,319.84,0,0,0-13,82.71H469.73c2.27-12.15,3.89-23.83,6.72-35.21,4.52-18.25,12.6-35,23-50.67C501.27,415.09,502.86,414.05,506.3,414.81Z" transform="translate(-446 -318)"/></svg>