<svg id="Layer_1" data-name="Layer 1" xmlns="http://www.w3.org/2000/svg" viewBox="0 0 512 512"><defs><style>.cls-1{fill:#fff;}.cls-2{fill:#d4e157;}</style></defs><title>icon-security-lime</title><path class="cls-1" d="M897,257V769H647c8.25-1.82,16.59-3.26,24.72-5.51,62.36-17.24,109.58-54.59,143.73-109,24-38.21,37.7-80.26,45.45-124.4,9.41-53.52,9.92-107.37,5.33-161.37-.61-7.13-1.31-14.26-2-21.39-.67-7.48-4.77-12.08-11.72-14.59q-50.44-18.25-100.85-36.62L647.59,258.31A24.18,24.18,0,0,1,645,257Z" transform="translate(-385 -257)"/><path class="cls-1" d="M657.24,377c28.62.05,49.12,20.37,49.37,49.05.12,13.66,0,27.32,0,41v5.38a10.75,10.75,0,0,0,1.31.48c22,1.22,29.08,8.83,29,30.83q-.06,43,0,86c0,17.71-9.47,27.3-27,27.29H572.52Q545,617,545,589.24V501.76c0-19.68,8.25-28.14,28-28.79.48,0,1-.12,2.31-.3V467c0-13.49-.1-27,0-40.49.27-29.34,20.51-49.4,49.88-49.52Q641.25,377,657.24,377ZM625.78,537.4c5.11,4.8,5.37,9.61,5.21,15.38-.08,3,0,6,0,9v10.49c0,13,0,13,13,12.74,5.52-.1,7-1.58,7-7.2,0-10.16.11-20.31,0-30.46-.05-3.19.65-5.36,3.3-7.61,8.5-7.17,9-19.83,1.59-28.14a20,20,0,0,0-27.89-1.75C619.73,516.85,617.94,530,625.78,537.4Zm-17.55-64.55h66.45c0-2.21,0-3.84,0-5.48,0-14.64.27-29.29-.27-43.91-.32-8.8-7-14.36-16-14.44q-17.46-.13-34.94,0c-8.87.07-15.67,5.8-15.9,14.58-.42,16.12-.06,32.26,0,48.39C607.54,472.25,607.93,472.5,608.23,472.85Z" transform="translate(-385 -257)"/><path class="cls-2" d="M852.56,332.74c7,2.51,11.05,7.11,11.72,14.59.64,7.13,1.34,14.26,2,21.39,4.59,54,4.08,107.85-5.33,161.37-7.75,44.14-21.48,86.19-45.45,124.4-34.15,54.41-81.37,91.76-143.73,109-8.13,2.25-16.47,3.69-24.72,5.51H635a7.67,7.67,0,0,0-1.76-.8c-57.18-9.1-104-36.64-141.86-79.94-31.07-35.56-50.49-77.25-62.44-122.6C410.08,494,410.22,421.35,417.5,348.31c.83-8.32,5.15-13.22,12.83-16Q510.84,303.24,591.26,274c15.28-5.55,30.49-11.31,45.74-17h8a24.18,24.18,0,0,0,2.59,1.31l104.12,37.81Q802.14,314.43,852.56,332.74ZM545,589.24Q545,617,572.52,617H710c17.54,0,27-9.58,27-27.29q0-43,0-86c0-22-7.07-29.61-29-30.83a10.75,10.75,0,0,1-1.31-.48V467c0-13.67.1-27.33,0-41-.25-28.68-20.75-49-49.37-49.05q-16,0-32,0c-29.37.12-49.61,20.18-49.88,49.52-.13,13.5,0,27,0,40.49v5.64c-1.34.18-1.83.29-2.31.3-19.78.65-28,9.11-28,28.79Z" transform="translate(-385 -257)"/><path class="cls-2" d="M658.38,409c9,.08,15.71,5.64,16,14.44.54,14.62.23,29.27.27,43.91,0,1.64,0,3.27,0,5.48H608.23c-.3-.35-.69-.6-.69-.85-.06-16.13-.42-32.27,0-48.39.23-8.78,7-14.51,15.9-14.58Q640.92,408.88,658.38,409Z" transform="translate(-385 -257)"/><path class="cls-2" d="M627.94,509.84a20,20,0,0,1,27.89,1.75c7.42,8.31,6.91,21-1.59,28.14-2.65,2.25-3.35,4.42-3.3,7.61.16,10.15.09,20.3,0,30.46,0,5.62-1.52,7.1-7,7.2-13,.22-13,.22-13-12.74V561.77c0-3-.07-6,0-9,.16-5.77-.1-10.58-5.21-15.38C617.94,530,619.73,516.85,627.94,509.84Z" transform="translate(-385 -257)"/><path class="cls-1" d="M491.38,688.26c37.81,43.3,84.68,70.84,141.86,79.94a7.67,7.67,0,0,1,1.76.8H385V257H637c-15.25,5.67-30.46,11.43-45.74,17q-80.44,29.25-160.93,58.33c-7.68,2.78-12,7.68-12.83,16-7.28,73-7.42,145.71,11.44,217.35C440.89,611,460.31,652.7,491.38,688.26Z" transform="translate(-385 -257)"/></svg>