<svg id="Layer_1" data-name="Layer 1" xmlns="http://www.w3.org/2000/svg" viewBox="0 0 512 505"><defs><style>.cls-1{fill:#d4e157;}.cls-2{fill:#fff;}</style></defs><title>icon-community-lime</title><path class="cls-1" d="M868.65,460A20.52,20.52,0,0,1,894.82,470c.81,1.62,1.46,3.31,2.18,5v8c-2.73,7.74-7.17,13.86-15.61,16a20.56,20.56,0,0,1-12.74-39Z" transform="translate(-385 -261)"/><path class="cls-1" d="M847.72,619.49a20.56,20.56,0,1,1-20.33,20.42A20.49,20.49,0,0,1,847.72,619.49Z" transform="translate(-385 -261)"/><path class="cls-2" d="M685,376.15c1.87,10.19,7,12.22,15.13,5.65,10.62-8.65,21.48-16.92,34.29-22.13,3.41-1.39,7-2.22,10.57-3.3.19.36.37.73.56,1.1l-31.26,37.3,37.91,31.83,31.37-37.26,1.44.49c-.88,4.94-1,10.18-2.79,14.74-4.6,11.55-9.35,23.13-15.24,34.06-4.41,8.16.06,13.55,8.16,13.8,13.21.41,26.4,2.63,39.53,4.58,4,.59,7.68,2.83,11.52,4.32,0,.45-.07.91-.1,1.36L778,471.29c2.86,16.23,5.66,32.21,8.57,48.71l47.76-8.32.73,1.09c-3,2.71-5.52,6.14-8.94,8-11.66,6.32-23.45,12.48-35.53,18-9.15,4.13-10.44,9.06-2.85,15.7,11.69,10.22,23.19,20.6,30.51,34.66.89,1.7,1.52,3.53,2.88,6.76l-43.49-25c-8.26,14.27-16.39,28.33-24.78,42.85l43,24.93c-8.58,2.38-16.33,1.6-23.82-.12-9.87-2.26-19.58-5.25-29.26-8.25-8.13-2.51-12.76,1.33-11.3,9.68,2.64,15.16,4.39,30.35,1.58,45.69a18.72,18.72,0,0,1-2.89,7.22l-16.83-46-46.5,16.89,16.48,45.53-1.19,1.15c-4.25-3.64-9.12-6.76-12.61-11-6.72-8.23-13.54-16.6-18.7-25.82-6.43-11.49-13-12-19.52.26-6.34,11.93-14.31,22.9-24.84,31.68-2.13,1.78-4.46,3.31-6.69,5l-1.14-.75c5.44-15,10.88-30.07,16.5-45.63l-46.47-17-17.14,46.8c-4-8.82-4.31-17.47-3.92-26,.43-9.29,1.68-18.56,3-27.78,1.15-8.21-3.22-12.29-11.05-9.59-13.55,4.68-27.15,9.14-41.67,9.56-3.43.1-6.87,0-10.3,0-.15-.61-.29-1.21-.43-1.81l42-24.35-24.74-42.84-42.3,24.31-1.38-1.13c3.7-5.76,6.8-12,11.26-17.14a287.42,287.42,0,0,1,21.83-21.91c7.9-7.31,7-12-2.69-16.36-11.67-5.19-23.06-11-34.29-17.1-3.79-2.06-6.73-5.69-10-8.6l.64-1.23,48,8.33c2.89-16.41,5.69-32.26,8.59-48.69l-49.28-8.79c9.08-5.68,18.27-7.68,27.61-8.72,8.59-1,17.27-1.18,25.92-1.6,8.05-.38,11-5.39,7.05-12.44-7.14-12.64-13.79-25.48-16.83-39.84-.69-3.31-.84-6.73-1.24-10.1l1.18-.45,31.37,37.25,37.92-31.8-31.29-37.38c.22-.45.45-.9.67-1.36,5,1.84,10.35,3,14.84,5.67,9.28,5.5,18.1,11.78,27.08,17.79,1.51,1,2.81,2.35,4.28,3.45,6.41,4.82,11.67,2.7,13.55-5.12,2.56-10.66,4.92-21.41,8.34-31.8,2.12-6.44,6-12.28,9.16-18.39l1.76.57v48.3h49.53V328.66l1.11-.5a67.68,67.68,0,0,1,4.19,5.58C678.83,346.81,682.25,361.38,685,376.15Z" transform="translate(-385 -261)"/><path class="cls-1" d="M794.46,358a20.51,20.51,0,1,1,20.63-20.45A20.2,20.2,0,0,1,794.46,358Z" transform="translate(-385 -261)"/><path class="cls-1" d="M717.11,725.23a20.62,20.62,0,0,1,12.11,39.42c-1.4.47-2.81.9-4.22,1.35h-4c-8.69-2.18-15.64-6.38-18.09-15.72A20.74,20.74,0,0,1,717.11,725.23Z" transform="translate(-385 -261)"/><path class="cls-1" d="M650.21,300A20.52,20.52,0,0,1,631.6,263.4c1.74-.9,3.6-1.6,5.4-2.4h8c6,2.28,11.39,5.23,14.4,11.39A20.54,20.54,0,0,1,650.21,300Z" transform="translate(-385 -261)"/><path class="cls-1" d="M578.9,739.43a20.59,20.59,0,0,1-10.56,24.41c-1.45.71-2.89,1.44-4.34,2.16h-9c-9.85-3.71-16.41-10-16.17-21.29a20.24,20.24,0,0,1,17.23-19.64A20.6,20.6,0,0,1,578.9,739.43Z" transform="translate(-385 -261)"/><path class="cls-1" d="M700.1,381.8c-8.08,6.57-13.26,4.54-15.13-5.65-2.72-14.77-6.14-29.34-14-42.41a67.68,67.68,0,0,0-4.19-5.58l-1.11.5v48.19H616.13v-48.3l-1.76-.57c-3.12,6.11-7,11.95-9.16,18.39-3.42,10.39-5.78,21.14-8.34,31.8-1.88,7.82-7.14,9.94-13.55,5.12-1.47-1.1-2.77-2.43-4.28-3.45-9-6-17.8-12.29-27.08-17.79-4.49-2.66-9.86-3.83-14.84-5.67-.22.46-.45.91-.67,1.36l31.29,37.38-37.92,31.8-31.37-37.25-1.18.45c.4,3.37.55,6.79,1.24,10.1,3,14.36,9.69,27.2,16.83,39.84,4,7.05,1,12.06-7.05,12.44-8.65.42-17.33.65-25.92,1.6-9.34,1-18.53,3-27.61,8.72L504,471.61c-2.9,16.43-5.7,32.28-8.59,48.69l-48-8.33-.64,1.23c3.32,2.91,6.26,6.54,10,8.6,11.23,6.07,22.62,11.91,34.29,17.1,9.68,4.31,10.59,9.05,2.69,16.36A287.42,287.42,0,0,0,472,577.17c-4.46,5.1-7.56,11.38-11.26,17.14l1.38,1.13,42.3-24.31L529.15,614l-42,24.35c.14.6.28,1.2.43,1.81,3.43,0,6.87.08,10.3,0,14.52-.42,28.12-4.88,41.67-9.56,7.83-2.7,12.2,1.38,11.05,9.59-1.3,9.22-2.55,18.49-3,27.78-.39,8.53-.07,17.18,3.92,26l17.14-46.8,46.47,17c-5.62,15.56-11.06,30.6-16.5,45.63l1.14.75c2.23-1.65,4.56-3.18,6.69-5,10.53-8.78,18.5-19.75,24.84-31.68,6.52-12.31,13.09-11.75,19.52-.26,5.16,9.22,12,17.59,18.7,25.82,3.49,4.26,8.36,7.38,12.61,11l1.19-1.15-16.48-45.53,46.5-16.89,16.83,46a18.72,18.72,0,0,0,2.89-7.22c2.81-15.34,1.06-30.53-1.58-45.69-1.46-8.35,3.17-12.19,11.3-9.68,9.68,3,19.39,6,29.26,8.25,7.49,1.72,15.24,2.5,23.82.12l-43-24.93c8.39-14.52,16.52-28.58,24.78-42.85l43.49,25c-1.36-3.23-2-5.06-2.88-6.76-7.32-14.06-18.82-24.44-30.51-34.66-7.59-6.64-6.3-11.57,2.85-15.7,12.08-5.47,23.87-11.63,35.53-18,3.42-1.86,6-5.29,8.94-8l-.73-1.09L786.55,520c-2.91-16.5-5.71-32.48-8.57-48.71l48.08-8.6c0-.45.06-.91.1-1.36-3.84-1.49-7.56-3.73-11.52-4.32-13.13-1.95-26.32-4.17-39.53-4.58-8.1-.25-12.57-5.64-8.16-13.8,5.89-10.93,10.64-22.51,15.24-34.06,1.82-4.56,1.91-9.8,2.79-14.74l-1.44-.49L752.17,426.6l-37.91-31.83,31.26-37.3c-.19-.37-.37-.74-.56-1.1-3.53,1.08-7.16,1.91-10.57,3.3C721.58,364.88,710.72,373.15,700.1,381.8Zm-2.44-17.86c8.83-5.31,17-10.71,25.65-15.3,9-4.82,18.79-8.28,29.22-6.65a33.11,33.11,0,0,1,13.53,5.52c6.92,4.88,12.79,11.25,19.72,16.12,12.73,9,15.5,21.58,12.53,35.35-2.42,11.27-7.18,22-11,33-.59,1.7-1.5,3.28-2.45,5.32,7.5.91,14.84,1.07,21.77,2.83a153,153,0,0,1,26.75,9.1c8.71,4,13.91,11.5,15.35,21.41,1.38,9.55,3.37,19,5,28.53s-2.53,17.23-8.55,24.09c-9.57,10.91-22.08,17.52-35,23.5-1.65.77-3.33,1.45-6.57,2.85,2.37,1.89,4.24,3.13,5.81,4.68,10,9.86,19.22,20.37,24.43,33.72,3.84,9.83,4,19.32-2.09,28.6A184,184,0,0,0,820,637c-5.43,11.14-14.76,15.79-26.32,17.12-13.32,1.54-26.2-1-39-4.5-2.06-.56-4.12-1.17-6.92-2,.26,3.32.47,6,.69,8.79,1,12.84,1.26,25.64-2.56,38.15-3.37,11-9.62,19.07-21.28,22.46a239.54,239.54,0,0,0-23.45,8.5c-8,3.26-15.64,2.47-23.16-1.18-13.34-6.49-22.42-17.55-31-29.15-2-2.66-3.73-5.44-5.85-8.56-4.31,5.83-7.78,11.82-12.49,16.58-7.19,7.29-14.74,14.44-23.08,20.33-7.67,5.41-16.65,5.87-25.75,2-8.27-3.49-16.76-6.48-25.29-9.28-7.33-2.41-12.95-7-15.38-14a118.8,118.8,0,0,1-6.09-26c-1-9.17-.23-18.54-.23-27.45-8.91,1.73-18.59,4.15-28.43,5.31a78.32,78.32,0,0,1-20.34-.53c-9.49-1.39-17-6.23-21.53-15.22a170.5,170.5,0,0,0-11.53-19.86c-8.16-11.8-7.42-23.93-.52-35.25,6.09-10,14.1-18.82,21.39-28.07a50,50,0,0,1,5.4-5.14c-7.95-4.19-15.63-7.49-22.49-12a112.18,112.18,0,0,1-18.77-15.51c-6.89-7.16-9.72-16-7.34-26.23,2-8.58,3.34-17.33,4.6-26.05,1.33-9.17,6.52-15.49,14-20.21,11.13-7,23.68-9.5,36.49-11,4.26-.5,8.53-.81,12.76-1.21-3.48-8.71-7.18-17.06-10.14-25.66-3.44-10-5-20.37-2.65-31a24.69,24.69,0,0,1,8.74-14.16c6.73-5.46,13.64-10.76,19.87-16.75,9.58-9.21,20.56-9.92,32.49-6.7,12.25,3.31,22.91,9.76,33.14,17,1.86,1.31,3.7,2.66,5.89,4.24,2.14-7.19,3.48-14.1,6.24-20.4a154,154,0,0,1,13-24.57c5.91-8.76,14.68-13.12,25.71-12.6,8.48.41,17,.27,25.49,0,8.79-.26,15.86,3.1,21.79,9.29,9.13,9.54,13.89,21.41,17.73,33.72C695.33,354.76,696.4,359.27,697.66,363.94Z" transform="translate(-385 -261)"/><path class="cls-1" d="M487.53,358.28a20.19,20.19,0,0,1-20.64-19.92,20.53,20.53,0,0,1,20.57-21.15,20.76,20.76,0,0,1,20.48,20.32A20.33,20.33,0,0,1,487.53,358.28Z" transform="translate(-385 -261)"/><path class="cls-2" d="M466.89,338.36a20.53,20.53,0,0,0,41.05-.83,20.76,20.76,0,0,0-20.48-20.32A20.53,20.53,0,0,0,466.89,338.36ZM434.14,660.9a20.59,20.59,0,0,0,20.43-20.31,20.54,20.54,0,1,0-41.08-.27A20.55,20.55,0,0,0,434.14,660.9ZM794.46,358a20.51,20.51,0,1,0,.09-41,20.51,20.51,0,0,0-.09,41Zm-71.15-9.37c-8.62,4.59-16.82,10-25.65,15.3-1.26-4.67-2.33-9.18-3.71-13.6-3.84-12.31-8.6-24.18-17.73-33.72-5.93-6.19-13-9.55-21.79-9.29-8.49.24-17,.38-25.49,0-11-.52-19.8,3.84-25.71,12.6a154,154,0,0,0-13,24.57c-2.76,6.3-4.1,13.21-6.24,20.4-2.19-1.58-4-2.93-5.89-4.24-10.23-7.25-20.89-13.7-33.14-17-11.93-3.22-22.91-2.51-32.49,6.7-6.23,6-13.14,11.29-19.87,16.75a24.69,24.69,0,0,0-8.74,14.16c-2.38,10.59-.79,20.94,2.65,31,3,8.6,6.66,16.95,10.14,25.66-4.23.4-8.5.71-12.76,1.21-12.81,1.5-25.36,4-36.49,11-7.5,4.72-12.69,11-14,20.21-1.26,8.72-2.61,17.47-4.6,26.05-2.38,10.27.45,19.07,7.34,26.23a112.18,112.18,0,0,0,18.77,15.51c6.86,4.55,14.54,7.85,22.49,12a50,50,0,0,0-5.4,5.14c-7.29,9.25-15.3,18.08-21.39,28.07-6.9,11.32-7.64,23.45.52,35.25a170.5,170.5,0,0,1,11.53,19.86c4.57,9,12,13.83,21.53,15.22a78.32,78.32,0,0,0,20.34.53c9.84-1.16,19.52-3.58,28.43-5.31,0,8.91-.79,18.28.23,27.45a118.8,118.8,0,0,0,6.09,26c2.43,6.92,8.05,11.55,15.38,14,8.53,2.8,17,5.79,25.29,9.28,9.1,3.83,18.08,3.37,25.75-2,8.34-5.89,15.89-13,23.08-20.33,4.71-4.76,8.18-10.75,12.49-16.58,2.12,3.12,3.89,5.9,5.85,8.56,8.54,11.6,17.62,22.66,31,29.15,7.52,3.65,15.14,4.44,23.16,1.18a239.54,239.54,0,0,1,23.45-8.5c11.66-3.39,17.91-11.46,21.28-22.46,3.82-12.51,3.56-25.31,2.56-38.15-.22-2.74-.43-5.47-.69-8.79,2.8.8,4.86,1.41,6.92,2,12.76,3.46,25.64,6,39,4.5,11.56-1.33,20.89-6,26.32-17.12a184,184,0,0,1,11.72-20.33c6.11-9.28,5.93-18.77,2.09-28.6-5.21-13.35-14.39-23.86-24.43-33.72-1.57-1.55-3.44-2.79-5.81-4.68,3.24-1.4,4.92-2.08,6.57-2.85,12.91-6,25.42-12.59,35-23.5,6-6.86,10.13-14.53,8.55-24.09s-3.57-19-5-28.53c-1.44-9.91-6.64-17.37-15.35-21.41a153,153,0,0,0-26.75-9.1c-6.93-1.76-14.27-1.92-21.77-2.83,1-2,1.86-3.62,2.45-5.32,3.78-11,8.54-21.74,11-33,3-13.77.2-26.39-12.53-35.35-6.93-4.87-12.8-11.24-19.72-16.12A33.11,33.11,0,0,0,752.53,342C742.1,340.36,732.35,343.82,723.31,348.64ZM868.5,639.91A20.56,20.56,0,1,0,848,660.6,20.49,20.49,0,0,0,868.5,639.91Zm-11.81-155a20.52,20.52,0,0,0,24.7,14c8.44-2.1,12.88-8.22,15.61-16V766H725c1.41-.45,2.82-.88,4.22-1.35a20.62,20.62,0,1,0-26.31-14.37c2.45,9.34,9.4,13.54,18.09,15.72H564c1.45-.72,2.89-1.45,4.34-2.16a20.57,20.57,0,0,0-12.28-38.77,20.24,20.24,0,0,0-17.23,19.64C538.59,756,545.15,762.29,555,766H385V484l2.13,4.35a20.56,20.56,0,1,0,17.79-29.44c-10.59.43-16.26,7-19.92,16.09V261H637c-1.8.8-3.66,1.5-5.4,2.4a20.52,20.52,0,1,0,27.8,9c-3-6.16-8.4-9.11-14.4-11.39H897V475c-.72-1.66-1.37-3.35-2.18-5a20.53,20.53,0,0,0-38.13,14.9Z" transform="translate(-385 -261)"/><path class="cls-1" d="M434.14,660.9a20.55,20.55,0,0,1-20.65-20.58,20.54,20.54,0,1,1,41.08.27A20.59,20.59,0,0,1,434.14,660.9Z" transform="translate(-385 -261)"/><path class="cls-1" d="M412,498.93a20.6,20.6,0,0,1-24.82-10.58L385,484v-9c3.66-9.05,9.33-15.66,19.92-16.09a20.5,20.5,0,0,1,7,40Z" transform="translate(-385 -261)"/></svg>