<svg id="Layer_1" data-name="Layer 1" xmlns="http://www.w3.org/2000/svg" xmlns:xlink="http://www.w3.org/1999/xlink" viewBox="0 0 456.1 512"><defs><style>.cls-1{fill:url(#linear-gradient);}.cls-2{fill:url(#linear-gradient-2);}.cls-3{fill:url(#linear-gradient-3);}</style><linearGradient id="linear-gradient" x1="412.94" y1="513" x2="869.05" y2="513" gradientUnits="userSpaceOnUse"><stop offset="0" stop-color="#8bc34a"/><stop offset="1" stop-color="#ff0"/></linearGradient><linearGradient id="linear-gradient-2" x1="607.34" y1="440.9" x2="674.73" y2="440.9" xlink:href="#linear-gradient"/><linearGradient id="linear-gradient-3" x1="620.75" y1="545.02" x2="661.03" y2="545.02" xlink:href="#linear-gradient"/></defs><title>icon-security</title><path class="cls-1" d="M866.23,368.72c4.59,54,4.08,107.85-5.33,161.37-7.75,44.14-21.48,86.19-45.45,124.4-34.15,54.41-81.37,91.76-143.73,109-8.13,2.25-16.47,3.69-24.72,5.51H635a7.67,7.67,0,0,0-1.76-.8c-57.18-9.1-104-36.64-141.86-79.94-31.07-35.56-50.49-77.25-62.44-122.6C410.08,494,410.22,421.35,417.5,348.31c.83-8.32,5.15-13.22,12.83-16Q510.84,303.24,591.26,274c15.28-5.55,30.49-11.31,45.74-17h8a24.18,24.18,0,0,0,2.59,1.31l104.12,37.81q50.43,18.31,100.85,36.62c7,2.51,11.05,7.11,11.72,14.59C864.92,354.46,865.62,361.59,866.23,368.72ZM710,617c17.54,0,27-9.58,27-27.29q0-43,0-86c0-22-7.07-29.61-29-30.83a10.75,10.75,0,0,1-1.31-.48V467c0-13.67.1-27.33,0-41-.25-28.68-20.75-49-49.37-49.05q-16,0-32,0c-29.37.12-49.61,20.18-49.88,49.52-.13,13.5,0,27,0,40.49v5.64c-1.34.18-1.83.29-2.31.3-19.78.65-28,9.11-28,28.79v87.48Q545,617,572.52,617Z" transform="translate(-412.94 -257)"/><path class="cls-2" d="M674.41,423.46c.54,14.62.23,29.27.27,43.91,0,1.64,0,3.27,0,5.48H608.23c-.3-.35-.69-.6-.69-.85-.06-16.13-.42-32.27,0-48.39.23-8.78,7-14.51,15.9-14.58q17.47-.15,34.94,0C667.36,409.1,674.09,414.66,674.41,423.46Z" transform="translate(-412.94 -257)"/><path class="cls-3" d="M655.83,511.59c7.42,8.31,6.91,21-1.59,28.14-2.65,2.25-3.35,4.42-3.3,7.61.16,10.15.09,20.3,0,30.46,0,5.62-1.52,7.1-7,7.2-13,.22-13,.22-13-12.74V561.77c0-3-.07-6,0-9,.16-5.77-.1-10.58-5.21-15.38-7.84-7.36-6-20.55,2.16-27.56A20,20,0,0,1,655.83,511.59Z" transform="translate(-412.94 -257)"/></svg>