<svg id="Layer_1" data-name="Layer 1" xmlns="http://www.w3.org/2000/svg" viewBox="0 0 600 600"><defs><style>.cls-1{fill:#fff;}.cls-2{fill:#d4e157;}</style></defs><title>icon-health-lime</title><path class="cls-1" d="M341,557c4.1,10.61,12.08,13.24,22.95,13.07,33-.54,66-.18,99-.23,2.77,0,4.92.28,6.71,3,27.3,41.68,61.57,77,100.58,107.61,24.34,19.09,50.14,36.32,75.22,54.48,4.45,3.23,8,3.61,12.7-.2,11-8.92,22.7-16.93,33.77-25.74,49.29-39.23,93.6-83.2,128.5-136,1.94-2.92,4.26-3.14,7.18-3.14,32,0,64,0,96,.07,5.79,0,10.44-1.88,13.81-6.53A63.53,63.53,0,0,0,941,557V813H341Z" transform="translate(-341 -213)"/><path class="cls-2" d="M364,570.07c-10.87.17-18.85-2.46-22.95-13.07v-7c.77-1.42,1.51-2.86,2.32-4.26,3.05-5.29,7.48-8.51,13.72-8.52q81.24-.06,162.48.11c1.82,0,4.26,1.64,5.34,3.24,9.49,14.09,18.69,28.37,28.09,42.52,5.11,7.7,12.34,10.58,19.58,8,5.79-2.1,9.12-6.4,10.66-12.27q7.42-28.21,14.93-56.4c.34-1.27.74-2.53,1.42-4.83,3.49,15.69,6.78,30.35,10,45q5.21,23.61,10.3,47.26c2.14,9.9,7.8,15.59,15.91,15.83,8.27.25,14.41-4.84,17.25-14.46q23.61-79.86,47.17-159.73c.64-2.17,1.36-4.31,2.37-7.52,4.92,16.16,9.52,31.25,14.1,46.34q5.05,16.69,10.07,33.42c3.08,10.25,7.3,13.46,18,13.46q73,0,146,0c9.49,0,19,.49,28.48-.13,11-.73,18.33,3.32,21.76,13.94v6a63.53,63.53,0,0,1-3.64,6.39c-3.37,4.65-8,6.55-13.81,6.53-32-.1-64,0-96-.07-2.92,0-5.24.22-7.18,3.14-34.9,52.82-79.21,96.79-128.5,136-11.07,8.81-22.78,16.82-33.77,25.74-4.69,3.81-8.25,3.43-12.7.2-25.08-18.16-50.88-35.39-75.22-54.48-39-30.59-73.28-65.93-100.58-107.61-1.79-2.74-3.94-3-6.71-3C429.93,569.89,396.93,569.53,364,570.07Z" transform="translate(-341 -213)"/><path class="cls-2" d="M819.29,291.6c28.58,9.26,45.65,29.85,55.54,57.31,9.73,27,11,54.54,5.76,82.62A380.38,380.38,0,0,1,859,505.62c-1,2.4-1.68,4.27-5,4.26-32.16-.15-64.32-.1-96.48-.12a20.59,20.59,0,0,1-2.06-.28q-11.64-39.39-23.2-78.53-6.69-22.71-13.34-45.44a38.14,38.14,0,0,0-2-5.63c-3.24-6.77-9.26-10.61-15.74-10.21s-12.11,5-14.31,12.17c-3.81,12.39-7.38,24.85-11,37.28q-17.56,59.55-35.12,119.08c-.37,1.26-.87,2.48-1.82,5.18-2-8.94-3.83-16.55-5.51-24.18q-8.1-36.77-16.13-73.53c-2-8.93-8.27-14.46-16.57-14.56-7.55-.09-13.6,5.13-15.95,13.94q-11.49,43.13-22.9,86.25c-.3,1.12-.7,2.22-1.35,4.27-4.38-6.78-8.32-13-12.42-19.14-2-3-3.82-6.69-6.7-8.56-3.69-2.41-8.35-4.6-12.63-4.65-30.48-.39-61-.29-91.47-.11-4.1,0-6.2-1.26-7.83-5-13.56-31.07-23.12-63.22-23.49-97.31-.27-25.13,5.06-49.32,18.5-71,14.31-23.12,35.9-35,62.34-38.53,33.51-4.42,65.71,2.35,97,13.54,19,6.83,37.43,15.54,56,23.7,3,1.29,5,1.35,7.74-.17,30.8-16.82,63-30.22,97.39-37.57C769.67,285.44,794.6,283.6,819.29,291.6Z" transform="translate(-341 -213)"/><path class="cls-1" d="M343.32,545.74c-.81,1.4-1.55,2.84-2.32,4.26V213H941V551c-3.43-10.62-10.73-14.67-21.76-13.94-9.45.62-19,.13-28.48.13q-73,0-146,0c-10.75,0-15-3.21-18-13.46q-5-16.71-10.07-33.42c-4.58-15.09-9.18-30.18-14.1-46.34-1,3.21-1.73,5.35-2.37,7.52Q676.6,531.33,653,611.2c-2.84,9.62-9,14.71-17.25,14.46-8.11-.24-13.77-5.93-15.91-15.83q-5.1-23.66-10.3-47.26c-3.23-14.67-6.52-29.33-10-45-.68,2.3-1.08,3.56-1.42,4.83q-7.47,28.2-14.93,56.4c-1.54,5.87-4.87,10.17-10.66,12.27-7.24,2.62-14.47-.26-19.58-8-9.4-14.15-18.6-28.43-28.09-42.52-1.08-1.6-3.52-3.24-5.34-3.24q-81.24-.26-162.48-.11C350.8,537.23,346.37,540.45,343.32,545.74Zm86.07-47.62c1.63,3.73,3.73,5,7.83,5,30.49-.18,61-.28,91.47.11,4.28,0,8.94,2.24,12.63,4.65,2.88,1.87,4.67,5.53,6.7,8.56,4.1,6.13,8,12.36,12.42,19.14.65-2.05,1-3.15,1.35-4.27q11.44-43.11,22.9-86.25c2.35-8.81,8.4-14,15.95-13.94,8.3.1,14.61,5.63,16.57,14.56q8.07,36.76,16.13,73.53c1.68,7.63,3.47,15.24,5.51,24.18.95-2.7,1.45-3.92,1.82-5.18q17.57-59.54,35.12-119.08c3.66-12.43,7.23-24.89,11-37.28,2.2-7.14,7.91-11.76,14.31-12.17s12.5,3.44,15.74,10.21a38.14,38.14,0,0,1,2,5.63q6.69,22.71,13.34,45.44,11.57,39.21,23.2,78.53a20.59,20.59,0,0,0,2.06.28c32.16,0,64.32,0,96.48.12,3.37,0,4.08-1.86,5-4.26a380.38,380.38,0,0,0,21.55-74.09c5.2-28.08,4-55.62-5.76-82.62-9.89-27.46-27-48.05-55.54-57.31-24.69-8-49.62-6.16-74.48-.85-34.44,7.35-66.59,20.75-97.39,37.57-2.79,1.52-4.79,1.46-7.74.17-18.55-8.16-36.93-16.87-56-23.7-31.25-11.19-63.45-18-97-13.54-26.44,3.49-48,15.41-62.34,38.53-13.44,21.71-18.77,45.9-18.5,71C406.27,434.9,415.83,467.05,429.39,498.12Z" transform="translate(-341 -213)"/></svg>