<svg id="Layer_1" data-name="Layer 1" xmlns="http://www.w3.org/2000/svg" viewBox="0 0 598.32 132.58"><defs><style>.cls-1{fill:#ff5722;}.cls-2{fill:#8bc34a;}.cls-3{opacity:0.7;}.cls-4{fill:#ff0;}</style></defs><title>ICURO-logo-1</title><path class="cls-1" d="M830,650.64q-13.86,0-24.31-4.4a48.78,48.78,0,0,1-17.6-12.32,51,51,0,0,1-10.67-18.81A77.92,77.92,0,0,1,773.9,591a72.77,72.77,0,0,1,3.85-24.2,57,57,0,0,1,10.89-19,48.86,48.86,0,0,1,17.27-12.54,56,56,0,0,1,22.77-4.51,91.08,91.08,0,0,1,15.4,1.32,70.81,70.81,0,0,1,14.74,4.18l-4.62,17.38a49.64,49.64,0,0,0-10.67-3.52,60.36,60.36,0,0,0-12.87-1.32q-17.16,0-26.29,10.78T795.24,591A64.27,64.27,0,0,0,797.33,608a34.76,34.76,0,0,0,6.6,13.2,29.31,29.31,0,0,0,11.55,8.47q7,3,17.16,3a64.84,64.84,0,0,0,14.74-1.54,53.13,53.13,0,0,0,10.34-3.3l2.86,17.16a21.32,21.32,0,0,1-5.06,2.09,73,73,0,0,1-7.48,1.76q-4.18.76-8.91,1.32A80.74,80.74,0,0,1,830,650.64Z" transform="translate(-596.43 -522.07)"/><path class="cls-1" d="M973.66,644.7q-7,1.77-18.59,3.74a159.77,159.77,0,0,1-26.73,2q-13.2,0-22.22-3.85a35.67,35.67,0,0,1-14.52-10.89,44.09,44.09,0,0,1-7.92-16.61,86.25,86.25,0,0,1-2.42-21.23V533.6h20.46v59.84q0,20.91,6.6,29.92t22.22,9q3.3,0,6.82-.22c2.34-.14,4.54-.33,6.6-.55s3.92-.44,5.61-.66a16.29,16.29,0,0,0,3.63-.77V533.6h20.46Z" transform="translate(-596.43 -522.07)"/><path class="cls-1" d="M1051.09,531.18c1.77,0,3.78.11,6.06.33s4.51.51,6.71.88,4.21.74,6.05,1.1a39.39,39.39,0,0,1,4.07,1l-3.52,17.82A66.85,66.85,0,0,0,1048,549a53.89,53.89,0,0,0-11.32,1.21q-5.61,1.21-7.37,1.65V648h-20.46V538.44a138.93,138.93,0,0,1,18-5A115.8,115.8,0,0,1,1051.09,531.18Z" transform="translate(-596.43 -522.07)"/><path class="cls-1" d="M1194.75,590.8a72.33,72.33,0,0,1-4,24.64,56.33,56.33,0,0,1-11.11,18.92,48.9,48.9,0,0,1-17,12.21,56.32,56.32,0,0,1-43.12,0,48.9,48.9,0,0,1-17-12.21,56.33,56.33,0,0,1-11.11-18.92,78.3,78.3,0,0,1,0-49.17,56.16,56.16,0,0,1,11.11-19,48.9,48.9,0,0,1,17-12.21,56.32,56.32,0,0,1,43.12,0,48.9,48.9,0,0,1,17,12.21,56.16,56.16,0,0,1,11.11,19A72.62,72.62,0,0,1,1194.75,590.8Zm-21.34,0q0-19.35-8.69-30.69t-23.65-11.33q-15,0-23.65,11.33t-8.69,30.69q0,19.37,8.69,30.69t23.65,11.33q15,0,23.65-11.33T1173.41,590.8Z" transform="translate(-596.43 -522.07)"/><polygon class="cls-1" points="147.31 125.93 126.01 125.93 126.01 35.65 147.31 23.74 147.31 125.93"/><path class="cls-1" d="M743.71,534.85l-20.18-12.62a1,1,0,0,0-1.53.85v25.24a1,1,0,0,0,1.53.85l20.18-12.63A1,1,0,0,0,743.71,534.85Z" transform="translate(-596.43 -522.07)"/><rect class="cls-2" x="588.23" y="546.01" width="109.36" height="41.66" rx="20.83" transform="translate(-810.57 34.56) rotate(-40.72)"/><g class="cls-3"><rect class="cls-4" x="588.21" y="590.79" width="109.27" height="41.66" rx="20.83" transform="translate(-36.79 -793.86) rotate(41.04)"/></g></svg>