<svg id="Layer_1" data-name="Layer 1" xmlns="http://www.w3.org/2000/svg" viewBox="0 0 521.92 207.1"><defs><style>.cls-1{font-size:200px;font-family:Ubuntu;}.cls-1,.cls-4{fill:#f15a24;}.cls-2{fill:#ed1c24;}.cls-3{fill:#eeff41;}.cls-5{fill:#b2ff59;}.cls-6{fill:#388e3c;}.cls-7{fill:#4caf50;}</style></defs><title>ICURO-logo-22</title><text class="cls-1" transform="translate(118.92 169.3)">curo</text><path class="cls-2" d="M507.89,458.37,494.42,466a54.12,54.12,0,0,0-6.32-6.7V447.16Z" transform="translate(-399.08 -381.7)"/><path class="cls-3" d="M506.42,502.61v46.88H488.1v-7C499.16,533.9,506.05,520.33,506.42,502.61Z" transform="translate(-399.08 -381.7)"/><path class="cls-4" d="M506.42,499.47v3.14c-.37,17.72-7.26,31.29-18.32,39.88V511.17a37.35,37.35,0,0,0,0-23.4V474.1l9-4.48A55.76,55.76,0,0,1,506.42,499.47Z" transform="translate(-399.08 -381.7)"/><path class="cls-4" d="M506.42,465v34.51a55.76,55.76,0,0,0-9.35-29.85Z" transform="translate(-399.08 -381.7)"/><path class="cls-2" d="M494.42,466l-6.32,3.58V459.29A54.12,54.12,0,0,1,494.42,466Z" transform="translate(-399.08 -381.7)"/><path class="cls-4" d="M488.1,487.77a37.35,37.35,0,0,1,0,23.4Z" transform="translate(-399.08 -381.7)"/><path class="cls-5" d="M488.1,511.17v31.32A50.44,50.44,0,0,1,466.46,552h0l-8.79,1h-.17c-6.3-2.48-16-6.84-23.22-13-8-6.81-9.25-12.6-9.27-15.86a37.23,37.23,0,0,0,63.14-13.07Z" transform="translate(-399.08 -381.7)"/><path class="cls-6" d="M475.94,451.12c-.1.25-.86,2.06-6.34,15.15a37.27,37.27,0,0,0-37.3,2.1h0c-3.93.24-11,2-18.64,11.46-6.88,8.48-11.4,19.58-13.9,26.75l-.41,0a64.13,64.13,0,0,1-.25-7.14c.55-29.63,24-53.66,53.66-53.66A52.81,52.81,0,0,1,475.94,451.12Z" transform="translate(-399.08 -381.7)"/><path class="cls-5" d="M457.62,553.06l8.79-1A60.88,60.88,0,0,1,457.62,553.06Z" transform="translate(-399.08 -381.7)"/><path class="cls-7" d="M457.45,553.07c-1.54.08-3.11.09-4.7.06-28.5-.6-50.78-17.45-53.41-46.52l.41,0c2.5-7.17,7-18.27,13.9-26.75,7.69-9.49,14.71-11.22,18.64-11.46A37.24,37.24,0,0,0,425,524.24c0,3.26,1.23,9,9.27,15.86C441.45,546.23,451.15,550.59,457.45,553.07Z" transform="translate(-399.08 -381.7)"/></svg>