<svg id="Layer_1" data-name="Layer 1" xmlns="http://www.w3.org/2000/svg" viewBox="0 0 582.89 227.81"><defs><style>.cls-1{font-size:220px;fill:#f15a24;font-family:Ubuntu;}.cls-2{fill:#ed1c24;}.cls-3{fill:#ff5722;}.cls-4{fill:#ff0;}.cls-5{fill:#8bc34a;}</style></defs><title>ICURO-logo-25</title><text class="cls-1" transform="translate(139.6 186.23)">curo</text><polygon class="cls-2" points="115.86 80.12 115.86 182.26 113.73 182.26 113.73 81.1 115.86 80.12"/><polygon class="cls-2" points="115.86 69.96 94.55 79.61 94.55 78.65 113.73 69.96 94.55 61.27 94.55 60.31 115.86 69.96"/><path class="cls-3" d="M508.14,473.87V575H489v-9.16c9.56-10.48,15.49-25.32,15.35-43.07-.13-16.68-4.18-31-12.17-41.49Z" transform="translate(-394.4 -392.77)"/><path class="cls-4" d="M508.14,472.89v1l-16,7.44-.55-.72Z" transform="translate(-394.4 -392.77)"/><polygon class="cls-3" points="113.73 69.96 94.55 78.65 94.55 61.27 113.73 69.96"/><path class="cls-3" d="M504.3,522.8c.14,17.75-5.79,32.59-15.35,43.07V482.79l3.18-1.48C500.12,491.79,504.17,506.12,504.3,522.8Z" transform="translate(-394.4 -392.77)"/><path class="cls-4" d="M491.58,480.59l.55.72L489,482.79v83.08c-.69.76-1.39,1.49-2.12,2.2V482.79Z" transform="translate(-394.4 -392.77)"/><path class="cls-4" d="M491.58,480.59l-4.75,2.2v40c0-24.32-16.78-44-37.48-44a33.77,33.77,0,0,0-22.19,8.55c2.33-2.59,7.52-7.24,18.81-11.69s23.27-6.57,30-7.56A44.66,44.66,0,0,1,491.58,480.59Z" transform="translate(-394.4 -392.77)"/><path class="cls-4" d="M489,565.87V575h-2.12v-7C487.56,567.36,488.26,566.63,489,565.87Z" transform="translate(-394.4 -392.77)"/><polygon class="cls-4" points="94.55 61.27 94.55 78.65 92.42 79.61 92.42 60.31 94.55 61.27"/><path class="cls-4" d="M486.83,522.8v45.27a51.62,51.62,0,0,1-36.47,14.8A58,58,0,0,1,426,577.75l.09-.2a57.06,57.06,0,0,0,25.43-5,66.09,66.09,0,0,0,21.86-15.93C481.6,548.52,486.83,536.38,486.83,522.8Z" transform="translate(-394.4 -392.77)"/><path class="cls-5" d="M473.37,556.6a66.09,66.09,0,0,1-21.86,15.93,57.06,57.06,0,0,1-25.43,5l-.09.2c-19.51-9-31.28-29.15-31.58-55-.4-34.48,21.4-59.91,55.95-60.07,9.93,0,18.48,1.84,25.66,5.34-6.78,1-18.8,3.13-30,7.56s-16.48,9.1-18.81,11.69c-9.27,8-15.29,20.92-15.29,35.48,0,24.32,16.78,44,37.48,44A34.2,34.2,0,0,0,473.37,556.6Z" transform="translate(-394.4 -392.77)"/></svg>