<svg id="Layer_1" data-name="Layer 1" xmlns="http://www.w3.org/2000/svg" viewBox="0 0 571.67 129.79"><defs><style>.cls-1{fill:#f15a24;}.cls-2{fill:#ed1c24;}.cls-3{fill:#ff5722;}.cls-4{fill:#ff0;}.cls-5{fill:#8bc34a;}</style></defs><title>ICURO-logo-25</title><path class="cls-1" d="M601.32,581.64q-13.86,0-24.31-4.4a48.78,48.78,0,0,1-17.6-12.32,51,51,0,0,1-10.67-18.81A77.92,77.92,0,0,1,545.22,522a72.77,72.77,0,0,1,3.85-24.2,57,57,0,0,1,10.89-19,48.86,48.86,0,0,1,17.27-12.54A56,56,0,0,1,600,461.74a91.08,91.08,0,0,1,15.4,1.32,71.43,71.43,0,0,1,14.74,4.18l-4.62,17.38a49.64,49.64,0,0,0-10.67-3.52A60.36,60.36,0,0,0,602,479.78q-17.16,0-26.29,10.78T566.56,522A64.27,64.27,0,0,0,568.65,539a34.76,34.76,0,0,0,6.6,13.2,29.31,29.31,0,0,0,11.55,8.47q7,3,17.16,3a64.84,64.84,0,0,0,14.74-1.54,53.13,53.13,0,0,0,10.34-3.3l2.86,17.16a21.32,21.32,0,0,1-5.06,2.09,73,73,0,0,1-7.48,1.76q-4.18.76-8.91,1.32A80.74,80.74,0,0,1,601.32,581.64Z" transform="translate(-394.4 -453.08)"/><path class="cls-1" d="M745,575.7q-7.05,1.77-18.59,3.74a159.77,159.77,0,0,1-26.73,2q-13.2,0-22.22-3.85a35.67,35.67,0,0,1-14.52-10.89A44.09,44.09,0,0,1,655,550.07a86.25,86.25,0,0,1-2.42-21.23V464.6H673v59.84q0,20.91,6.6,29.92t22.22,9q3.3,0,6.82-.22c2.34-.14,4.54-.33,6.6-.55s3.92-.44,5.61-.66a16.29,16.29,0,0,0,3.63-.77V464.6H745Z" transform="translate(-394.4 -453.08)"/><path class="cls-1" d="M822.42,462.18c1.76,0,3.77.11,6.05.33s4.51.52,6.71.88,4.21.74,6.05,1.1a38.73,38.73,0,0,1,4.07,1l-3.52,17.82a66.7,66.7,0,0,0-22.44-3.3A54,54,0,0,0,808,481.21q-5.61,1.21-7.37,1.65V579H780.18V469.44a138.93,138.93,0,0,1,18-4.95A115.83,115.83,0,0,1,822.42,462.18Z" transform="translate(-394.4 -453.08)"/><path class="cls-1" d="M966.07,521.8a72.33,72.33,0,0,1-4,24.64A56.23,56.23,0,0,1,951,565.36a48.81,48.81,0,0,1-17,12.21,56.32,56.32,0,0,1-43.12,0,48.9,48.9,0,0,1-17.05-12.21,56.39,56.39,0,0,1-11.11-18.92,78.3,78.3,0,0,1,0-49.17,56.33,56.33,0,0,1,11.11-19A48.9,48.9,0,0,1,890.83,466,56.32,56.32,0,0,1,934,466a48.81,48.81,0,0,1,17,12.21,56.16,56.16,0,0,1,11.11,19A72.67,72.67,0,0,1,966.07,521.8Zm-21.34,0q0-19.35-8.69-30.69t-23.65-11.33q-15,0-23.65,11.33t-8.69,30.69q0,19.37,8.69,30.69t23.65,11.33q15,0,23.65-11.33T944.73,521.8Z" transform="translate(-394.4 -453.08)"/><polygon class="cls-2" points="115.86 19.81 115.86 121.95 113.73 121.95 113.73 20.79 115.86 19.81"/><polygon class="cls-2" points="115.86 9.65 94.55 19.3 94.55 18.34 113.73 9.65 94.55 0.96 94.55 0 115.86 9.65"/><path class="cls-3" d="M508.14,473.87V575H489v-9.16c9.56-10.48,15.49-25.32,15.35-43.07-.13-16.68-4.18-31-12.17-41.49Z" transform="translate(-394.4 -453.08)"/><path class="cls-4" d="M508.14,472.89v1l-16,7.44-.55-.72Z" transform="translate(-394.4 -453.08)"/><polygon class="cls-3" points="113.73 9.65 94.55 18.34 94.55 0.96 113.73 9.65"/><path class="cls-3" d="M504.3,522.8c.14,17.75-5.79,32.59-15.35,43.07V482.79l3.18-1.48C500.12,491.79,504.17,506.12,504.3,522.8Z" transform="translate(-394.4 -453.08)"/><path class="cls-4" d="M491.58,480.59l.55.72L489,482.79v83.08c-.69.76-1.39,1.49-2.12,2.2V482.79Z" transform="translate(-394.4 -453.08)"/><path class="cls-4" d="M491.58,480.59l-4.75,2.2v40c0-24.32-16.78-44-37.48-44a33.77,33.77,0,0,0-22.19,8.55c2.33-2.59,7.52-7.24,18.81-11.69s23.27-6.57,30-7.56A44.66,44.66,0,0,1,491.58,480.59Z" transform="translate(-394.4 -453.08)"/><path class="cls-4" d="M489,565.87V575h-2.12v-7C487.56,567.36,488.26,566.63,489,565.87Z" transform="translate(-394.4 -453.08)"/><polygon class="cls-4" points="94.55 0.96 94.55 18.34 92.42 19.3 92.42 0 94.55 0.96"/><path class="cls-4" d="M486.83,522.8v45.27a51.62,51.62,0,0,1-36.47,14.8A58,58,0,0,1,426,577.75l.09-.2a57.06,57.06,0,0,0,25.43-5,66.09,66.09,0,0,0,21.86-15.93C481.6,548.52,486.83,536.38,486.83,522.8Z" transform="translate(-394.4 -453.08)"/><path class="cls-5" d="M473.37,556.6a66.09,66.09,0,0,1-21.86,15.93,57.06,57.06,0,0,1-25.43,5l-.09.2c-19.51-9-31.28-29.15-31.58-55-.4-34.48,21.4-59.91,55.95-60.07,9.93,0,18.48,1.84,25.66,5.34-6.78,1-18.8,3.13-30,7.56s-16.48,9.1-18.81,11.69c-9.27,8-15.29,20.92-15.29,35.48,0,24.32,16.78,44,37.48,44A34.2,34.2,0,0,0,473.37,556.6Z" transform="translate(-394.4 -453.08)"/></svg>